<?xml version="1.0" encoding="UTF-8"?>
<svg version="1.1" xmlns="http://www.w3.org/2000/svg" width="866" height="650">
<path d="M0 0 C285.78 0 571.56 0 866 0 C866 214.5 866 429 866 650 C580.22 650 294.44 650 0 650 C0 435.5 0 221 0 0 Z " fill="#FEFEFE" transform="translate(0,0)"/>
<path d="M0 0 C55.94902785 -1.25294302 109.09155627 14.58095302 152.85742188 50.08251953 C153.86804688 50.88947266 154.87867188 51.69642578 155.91992188 52.52783203 C160.47265838 56.19665959 164.75933622 59.9063751 168.85742188 64.08251953 C169.58703125 64.80052734 170.31664062 65.51853516 171.06835938 66.25830078 C195.60250923 90.48245235 214.81503809 121.41672805 225.85742188 154.08251953 C226.09009766 154.76942871 226.32277344 155.45633789 226.5625 156.1640625 C230.44659164 167.89656437 232.90674922 179.89140088 234.85742188 192.08251953 C235.03748779 193.19771973 235.03748779 193.19771973 235.22119141 194.33544922 C238.77915182 217.63452235 238.35892307 242.98729338 233.85742188 266.08251953 C233.68049805 266.99533691 233.50357422 267.9081543 233.32128906 268.84863281 C225.29810645 309.02690224 207.58457859 345.91802519 180.25488281 376.51318359 C178.89252616 378.04309774 177.54887532 379.58761155 176.20898438 381.13720703 C170.24142188 387.95451953 170.24142188 387.95451953 166.85742188 389.08251953 C166.85742188 389.74251953 166.85742188 390.40251953 166.85742188 391.08251953 C166.19742187 391.08251953 165.53742188 391.08251953 164.85742188 391.08251953 C164.85742188 391.74251953 164.85742188 392.40251953 164.85742188 393.08251953 C163.30853686 394.49958455 161.68980654 395.84061449 160.04492188 397.14501953 C155.64666229 400.64090663 155.64666229 400.64090663 151.34570312 404.25439453 C124.19288163 427.61349371 89.5539325 441.74494016 54.85742188 449.08251953 C53.41955322 449.39793701 53.41955322 449.39793701 51.95263672 449.71972656 C23.28722362 455.82399511 -6.47386563 454.36099364 -35.14257812 449.08251953 C-35.97192871 448.93298828 -36.8012793 448.78345703 -37.65576172 448.62939453 C-55.82843935 445.21979769 -73.71883443 438.49119947 -90.14257812 430.08251953 C-90.8304541 429.73576172 -91.51833008 429.38900391 -92.22705078 429.03173828 C-110.16855788 419.95473894 -126.14382234 408.74208655 -140.92382812 395.11376953 C-142.91273611 393.29293828 -144.94940788 391.56164547 -147.01757812 389.83251953 C-155.6743462 382.28199159 -163.38690087 373.34704788 -170.14257812 364.08251953 C-170.55411133 363.53772949 -170.96564453 362.99293945 -171.38964844 362.43164062 C-185.08312816 344.27499362 -195.34753841 324.40578638 -203.14257812 303.08251953 C-203.63765089 301.77223748 -204.13368394 300.46231769 -204.63085938 299.15283203 C-208.98456565 287.41452071 -211.53412167 275.71633242 -213.26757812 263.33251953 C-213.43644531 262.16591797 -213.6053125 260.99931641 -213.77929688 259.79736328 C-214.10400846 257.53972287 -214.42261033 255.2811932 -214.734375 253.02172852 C-215.05077647 250.74352437 -215.39233859 248.46880745 -215.74414062 246.19580078 C-222.35071979 191.25612176 -203.6665962 133.9668795 -171.00195312 90.21533203 C-169.09739455 87.79205222 -167.13544425 85.43356809 -165.14257812 83.08251953 C-164.31371094 82.07060547 -163.48484375 81.05869141 -162.63085938 80.01611328 C-153.14030866 68.49248638 -142.91694294 58.28941869 -131.14257812 49.08251953 C-130.19382812 48.30521484 -129.24507813 47.52791016 -128.26757812 46.72705078 C-112.74548295 34.27373718 -95.25415612 25.16114686 -77.14257812 17.08251953 C-76.49579102 16.78651855 -75.84900391 16.49051758 -75.18261719 16.18554688 C-51.84968786 5.58025105 -25.48205234 0.66912164 0 0 Z " fill="#5864F1" transform="translate(422.142578125,97.91748046875)"/>
<path d="M0 0 C1.609375 1.609375 1.609375 1.609375 2.75 3.75 C3.13671875 4.44609375 3.5234375 5.1421875 3.921875 5.859375 C4.27765625 6.56578125 4.6334375 7.2721875 5 8 C5.37640625 8.68578125 5.7528125 9.3715625 6.140625 10.078125 C7 12 7 12 7 15 C8.08410156 14.855625 9.16820312 14.71125 10.28515625 14.5625 C31.53215615 11.97202078 53.83864772 11.47834851 75 15 C75.28617188 14.11054688 75.57234375 13.22109375 75.8671875 12.3046875 C77.31794131 8.07248845 79.15080889 4.06822045 81 0 C88.42383094 0.46037884 95.28944027 1.5863482 102.4375 3.625 C103.3769043 3.88788818 104.31630859 4.15077637 105.28417969 4.42163086 C111.83328728 6.29147238 118.31132274 8.34285881 124.75 10.5625 C125.53431396 10.83078613 126.31862793 11.09907227 127.12670898 11.37548828 C129.44192718 12.19853468 131.72096429 13.08167562 134 14 C134.85255371 14.32935547 135.70510742 14.65871094 136.58349609 14.99804688 C143.56921759 18.02271148 146.58080092 21.75599911 150.125 28.375 C150.88272705 29.71836426 150.88272705 29.71836426 151.65576172 31.08886719 C152.66574347 32.88989935 153.66362836 34.69777632 154.6484375 36.51269531 C155.79861212 38.62938227 156.98023095 40.72033295 158.1875 42.8046875 C171.91689792 67.21865719 180.54648349 94.41216044 185 122 C185.17877686 123.04591309 185.35755371 124.09182617 185.54174805 125.16943359 C187.11611052 135.37041113 187.27534993 145.38873969 187.20581055 155.69140625 C187.18734661 158.52352775 187.18530306 161.35532402 187.18554688 164.1875 C187.18063698 166.01041947 187.17481099 167.83333676 187.16796875 169.65625 C187.16685593 170.49176392 187.1657431 171.32727783 187.16459656 172.18811035 C187.12691993 176.86488914 186.98521918 181.40790765 186 186 C183.84090596 187.97865102 182.09609062 189.28568489 179.625 190.75 C178.95944092 191.16628662 178.29388184 191.58257324 177.6081543 192.01147461 C175.4199868 193.3665105 173.21155453 194.68354182 171 196 C169.49335757 196.92296163 167.98684846 197.8461409 166.48046875 198.76953125 C152.48673053 207.21805134 137.85032807 214.02141419 122.5 219.625 C121.79987793 219.88514893 121.09975586 220.14529785 120.37841797 220.41333008 C117.75246714 221.32971475 115.50796602 222.03033927 112.7109375 221.86328125 C105.66900916 218.31016216 100.06526743 205.99806337 97 199 C97 198.01 97 197.02 97 196 C98.09699219 195.52949219 99.19398438 195.05898438 100.32421875 194.57421875 C101.77872539 193.94549652 103.23314806 193.31658 104.6875 192.6875 C105.40873047 192.37876953 106.12996094 192.07003906 106.87304688 191.75195312 C110.77143808 190.06087018 114.35584142 188.19731269 118 186 C118.66 186 119.32 186 120 186 C119.01 184.68 118.02 183.36 117 182 C110.79917402 182.56678764 105.58432155 184.55349596 99.8125 186.8125 C90.06533202 190.48780904 80.482121 192.97740424 70.20898438 194.64160156 C68.23395903 194.96204113 66.26485195 195.31847654 64.296875 195.6796875 C31.15888885 201.10361797 -2.43794442 193.8720187 -33 181 C-34.32 182.32 -35.64 183.64 -37 185 C-25.83022155 191.22386917 -25.83022155 191.22386917 -14 196 C-15.44915079 201.04086322 -17.65602 205.13305056 -20.375 209.5625 C-20.76171875 210.20896484 -21.1484375 210.85542969 -21.546875 211.52148438 C-23.80007951 215.23775961 -26.19598214 218.66462716 -29 222 C-35.90383854 220.84237194 -42.16147046 219.04751999 -48.625 216.375 C-49.49253906 216.02018555 -50.36007812 215.66537109 -51.25390625 215.29980469 C-63.16116499 210.35593184 -74.35161019 204.51283376 -85.4375 197.9375 C-86.25412109 197.45506836 -87.07074219 196.97263672 -87.91210938 196.47558594 C-92.04477862 193.97813341 -96.09417255 191.35693095 -100.03515625 188.56640625 C-101.14129272 187.7940564 -101.14129272 187.7940564 -102.26977539 187.00610352 C-106.10731777 182.556677 -105.17785069 175.61948587 -105.23828125 169.98828125 C-105.25297203 168.85184929 -105.25297203 168.85184929 -105.26795959 167.69245911 C-105.78047802 117.59099244 -93.98944933 70.54927361 -67.14282227 27.86914062 C-66.34471133 26.56379191 -65.59032725 25.23114389 -64.87084961 23.88085938 C-61.87371941 18.4759746 -59.09841903 16.38871039 -53.3125 14.375 C-52.56846924 14.09414551 -51.82443848 13.81329102 -51.05786133 13.52392578 C-48.71509885 12.65198339 -46.36033701 11.82303159 -44 11 C-43.26491211 10.73445312 -42.52982422 10.46890625 -41.77246094 10.1953125 C-33.0526533 7.04854851 -24.23090261 4.42027517 -15.25 2.125 C-14.41621826 1.90956543 -13.58243652 1.69413086 -12.72338867 1.47216797 C-4.27852217 -0.6056944 -4.27852217 -0.6056944 0 0 Z " fill="#FDFDFE" transform="translate(392,214)"/>
<path d="M0 0 C7.52733124 4.56732361 12.44841057 10.2712674 15.06640625 18.70703125 C17.12424593 27.96083861 15.46139655 36.59944943 10.8125 44.8125 C5.62467062 51.37357834 0.8453578 55.78072782 -7.58984375 56.95703125 C-16.01400579 57.35034175 -21.85154244 56.02565703 -28.3125 50.5 C-34.17493729 44.81126456 -37.39040136 35.43327866 -37.75 27.375 C-36.61487509 17.32103655 -33.26622358 10.08219431 -25.8125 3.1875 C-24.575 2.3521875 -24.575 2.3521875 -23.3125 1.5 C-22.4875 0.9225 -21.6625 0.345 -20.8125 -0.25 C-14.28572833 -2.58098988 -6.4352049 -2.8671705 0 0 Z " fill="#5764F2" transform="translate(492.3125,308.5)"/>
<path d="M0 0 C2.875 2.5625 2.875 2.5625 5 5 C5.53625 5.45375 6.0725 5.9075 6.625 6.375 C11.52528592 12.166247 12.37526863 19.88972451 12.27734375 27.1796875 C11.45305145 35.56192754 8.51872939 43.49203989 2 49 C-4.14318117 53.96521034 -9.90174919 54.7412648 -17.69921875 54.40625 C-25.76402436 53.41365854 -30.2113695 49.52131587 -35.30078125 43.33203125 C-41.12147398 35.34363226 -40.68961477 26.5265354 -40 17 C-38.74368425 9.12955133 -32.89434289 3.30222058 -26.99609375 -1.69921875 C-19.16994436 -6.79923391 -7.47513018 -4.75829642 0 0 Z " fill="#5764F2" transform="translate(399,311)"/>
<path d="M0 0 C1.15459717 0.48811157 1.15459717 0.48811157 2.33251953 0.98608398 C3.6264563 1.51165894 3.6264563 1.51165894 4.9465332 2.04785156 C5.86023682 2.4386792 6.77394043 2.82950684 7.71533203 3.23217773 C9.62389992 4.00175369 11.53406254 4.76738651 13.44580078 5.52905273 C14.83871338 6.08882813 14.83871338 6.08882813 16.25976562 6.65991211 C27.40283152 11.02015057 39.05237628 12.97121301 50.84033203 14.66967773 C52.70625 14.95391602 52.70625 14.95391602 54.60986328 15.24389648 C60.10701248 15.91007414 65.62378563 15.81455447 71.15283203 15.79467773 C72.21695313 15.79854492 73.28107422 15.80241211 74.37744141 15.80639648 C81.25134101 15.79800857 88.00740961 15.41688235 94.84033203 14.66967773 C95.33533203 15.65967773 95.33533203 15.65967773 95.84033203 16.66967773 C89.74938015 17.43856723 83.85348024 17.7975669 77.71923828 17.73217773 C76.48028053 17.7264978 76.48028053 17.7264978 75.21629333 17.72070312 C72.61174973 17.708613 70.00732385 17.68996307 67.40283203 17.66967773 C63.94580415 17.6431314 60.48882924 17.62315613 57.03173828 17.60717773 C56.23909073 17.59887939 55.44644318 17.59058105 54.629776 17.58203125 C50.60525171 17.46709307 50.60525171 17.46709307 46.84033203 18.66967773 C44.50029033 18.38725891 42.16528481 18.05716986 39.84033203 17.66967773 C39.84033203 17.33967773 39.84033203 17.00967773 39.84033203 16.66967773 C36.21033203 16.00967773 32.58033203 15.34967773 28.84033203 14.66967773 C28.84033203 14.00967773 28.84033203 13.34967773 28.84033203 12.66967773 C27.05162025 12.28082735 25.25920329 11.90898578 23.46533203 11.54467773 C21.96873047 11.23143555 21.96873047 11.23143555 20.44189453 10.91186523 C19.15412109 10.79198242 19.15412109 10.79198242 17.84033203 10.66967773 C15.61672523 12.59514214 15.61672523 12.59514214 14.84033203 15.66967773 C7.55294814 12.77198702 0.58954246 9.67489099 -6.15966797 5.66967773 C-6.15966797 2.66967773 -6.15966797 2.66967773 -4.44042969 0.89990234 C-2.15966797 -0.33032227 -2.15966797 -0.33032227 0 0 Z " fill="#6269E4" transform="translate(361.15966796875,394.330322265625)"/>
<path d="M0 0 C0.99 0.33 1.98 0.66 3 1 C3.33 1.99 3.66 2.98 4 4 C4.99 4.33 5.98 4.66 7 5 C8.09658936 8.28976808 7.79953138 9.71303767 7 13 C8.32 13 9.64 13 11 13 C11.103125 14.19625 11.20625 15.3925 11.3125 16.625 C11.78891352 20.5624176 13.01130716 23.54140375 15 27 C15.33 27 15.66 27 16 27 C16.33 30.3 16.66 33.6 17 37 C17.66 37 18.32 37 19 37 C19.33 35.68 19.66 34.36 20 33 C22.60018816 36.90028225 22.15085514 40.47434569 22 45 C21.67 43.68 21.34 42.36 21 41 C20.34 41 19.68 41 19 41 C19.50660156 42.34191406 19.50660156 42.34191406 20.0234375 43.7109375 C23.92660641 54.29236073 26.43467971 63.65002976 26 75 C24.47514349 72.19281443 23.58665581 69.6622587 22.95703125 66.53515625 C22.77446777 65.6639917 22.5919043 64.79282715 22.40380859 63.89526367 C22.11111084 62.49304565 22.11111084 62.49304565 21.8125 61.0625 C17.49246809 41.45458816 10.35643521 23.53132631 2.01220703 5.30224609 C1 3 1 3 0 0 Z " fill="#646CDC" transform="translate(551,259)"/>
<path d="M0 0 C3.12290635 0.48578543 5.99580359 0.9986012 9 2 C-5.59317419 8.27601871 -20.51547634 12.50738463 -36 16 C-37.01416992 16.22880859 -38.02833984 16.45761719 -39.07324219 16.69335938 C-58.26974139 20.82368856 -77.48057047 20.42608107 -97 20 C-97 19.67 -97 19.34 -97 19 C-95.45675049 18.970271 -95.45675049 18.970271 -93.88232422 18.93994141 C-90.04663602 18.86357574 -86.21131192 18.77490731 -82.37597656 18.68261719 C-80.71947444 18.6444549 -79.06289305 18.60958025 -77.40625 18.578125 C-75.01794199 18.532196 -72.63017368 18.47424963 -70.2421875 18.4140625 C-69.14026566 18.39673569 -69.14026566 18.39673569 -68.01608276 18.37905884 C-63.64778598 18.25511191 -60.07831982 17.54217116 -56 16 C-54.38280371 15.73788562 -52.75657211 15.52332474 -51.125 15.375 C-50.34382813 15.30023437 -49.56265625 15.22546875 -48.7578125 15.1484375 C-47.88769531 15.07496094 -47.88769531 15.07496094 -47 15 C-47.495 14.01 -47.495 14.01 -48 13 C-47.01 13.02320313 -46.02 13.04640625 -45 13.0703125 C-32.94884358 13.4568488 -32.94884358 13.4568488 -22 9 C-19.78415454 8.55296766 -17.55158039 8.18536758 -15.3125 7.875 C-14.13300781 7.70742188 -12.95351563 7.53984375 -11.73828125 7.3671875 C-10.83464844 7.24601563 -9.93101562 7.12484375 -9 7 C-9.495 5.515 -9.495 5.515 -10 4 C-5.545 3.505 -5.545 3.505 -1 3 C-0.67 2.01 -0.34 1.02 0 0 Z " fill="#6D75DA" transform="translate(513,531)"/>
<path d="M0 0 C1.06231036 2.76200694 1.04562523 3.87153321 0.03564453 6.71533203 C-1.09856143 10.31259912 -1.22861792 13.16617499 -1.1953125 16.9296875 C-1.18886719 18.21875 -1.18242187 19.5078125 -1.17578125 20.8359375 C-1.15907463 22.18229442 -1.14214479 23.52864859 -1.125 24.875 C-1.11495664 26.24478517 -1.10583317 27.61457742 -1.09765625 28.984375 C-1.07414412 32.32309756 -1.0412793 35.66145761 -1 39 C-0.34 39.33 0.32 39.66 1 40 C0.01 40 -0.98 40 -2 40 C-6.98199269 30.68899424 -9.59893628 22.38663604 -6.8125 11.9375 C-5.29701905 7.22347994 -3.09166837 3.84369582 0 0 Z " fill="#5764EB" transform="translate(463,315)"/>
<path d="M0 0 C18.53720299 -0.41987756 36.68883371 0.33502964 54.89257812 4.07373047 C54.89257812 4.40373047 54.89257812 4.73373047 54.89257812 5.07373047 C52.78848173 5.10074455 50.68428635 5.1201327 48.58007812 5.13623047 C47.40832031 5.14783203 46.2365625 5.15943359 45.02929688 5.17138672 C41.89257812 5.07373047 41.89257812 5.07373047 38.89257812 4.07373047 C22.78385946 2.00789767 22.78385946 2.00789767 6.89257812 4.07373047 C6.89257812 3.41373047 6.89257812 2.75373047 6.89257812 2.07373047 C6.17585938 2.24001953 5.45914063 2.40630859 4.72070312 2.57763672 C1.91664091 3.06950951 -0.5179354 3.10452788 -3.35742188 3.01123047 C-14.80696217 2.91264894 -26.22489275 4.80270416 -37.47070312 6.80419922 C-40.06437542 7.06933016 -41.63773502 6.7692642 -44.10742188 6.07373047 C-29.28211141 2.85507754 -15.16782845 0.35989034 0 0 Z " fill="#686EDF" transform="translate(422.107421875,97.92626953125)"/>
<path d="M0 0 C0.33 0 0.66 0 1 0 C0.99777939 0.55106918 0.99555878 1.10213837 0.99327087 1.66990662 C0.97084931 7.4955072 0.95594276 13.3210952 0.94506836 19.14672852 C0.94009277 21.31014505 0.93330991 23.47355832 0.92456055 25.63696289 C0.11237336 47.00503372 0.11237336 47.00503372 3 68 C3.06624507 69.74886981 3.08552595 71.50002748 3.0625 73.25 C3.05347656 74.14203125 3.04445312 75.0340625 3.03515625 75.953125 C3.01775391 76.96632813 3.01775391 76.96632813 3 78 C-7.7522314 58.49182565 -3.31787073 21.32916898 0 0 Z " fill="#6C73DF" transform="translate(208,290)"/>
<path d="M0 0 C1.8125 1.375 1.8125 1.375 3 3 C3 3.66 3 4.32 3 5 C0.46080994 6.29673602 -2.08114238 7.58747837 -4.625 8.875 C-5.33785156 9.23980469 -6.05070312 9.60460937 -6.78515625 9.98046875 C-10.78751837 12.00000927 -14.68917073 13.7081111 -19 15 C-18 12 -18 12 -16 10.9375 C-15.34 10.628125 -14.68 10.31875 -14 10 C-13.67 9.34 -13.34 8.68 -13 8 C-15.475 7.01 -15.475 7.01 -18 6 C-15.3612314 4.24082094 -13.03921171 3.07080116 -10.125 1.875 C-8.86042969 1.34519531 -8.86042969 1.34519531 -7.5703125 0.8046875 C-4.86405382 -0.04256066 -2.81719621 -0.24956423 0 0 Z " fill="#626CE2" transform="translate(509,395)"/>
<path d="M0 0 C0.33 0 0.66 0 1 0 C1.36122881 1.31057393 1.71380311 2.62353624 2.0625 3.9375 C2.25972656 4.66839844 2.45695312 5.39929688 2.66015625 6.15234375 C2.77230469 6.76207031 2.88445312 7.37179687 3 8 C2.67 8.33 2.34 8.66 2 9 C1.92820036 10.51928038 1.91607993 12.04167482 1.9375 13.5625 C1.94652344 14.38878906 1.95554687 15.21507812 1.96484375 16.06640625 C1.97644531 16.70449219 1.98804688 17.34257812 2 18 C2.66 18 3.32 18 4 18 C4.33 17.34 4.66 16.68 5 16 C5 17.65 5 19.3 5 21 C5.66 21 6.32 21 7 21 C7 22.98 7 24.96 7 27 C8.65 26.67 10.3 26.34 12 26 C12.12375 26.639375 12.2475 27.27875 12.375 27.9375 C12.58125 28.618125 12.7875 29.29875 13 30 C13.66 30.33 14.32 30.66 15 31 C15 31.66 15 32.32 15 33 C21.65936905 33.76418989 28.32271667 34.41339754 35 35 C32.18906338 37.81093662 30.2986708 37.33299068 26.375 37.375 C18.76009174 37.22736402 14.42455186 36.16351524 8.84765625 31.01171875 C0.96636496 22.75987851 -0.31998283 16.3461514 -0.15429688 5.28295898 C-0.11263526 3.52171441 -0.05769586 1.76079224 0 0 Z " fill="#626BDE" transform="translate(359,328)"/>
<path d="M0 0 C0.33 0 0.66 0 1 0 C3.306945 12.3141809 4.46120055 24.18283154 4.33618164 36.71142578 C4.31211755 39.29099757 4.3157158 41.86955956 4.32226562 44.44921875 C4.31670038 46.11719359 4.30959783 47.78516418 4.30078125 49.453125 C4.30214836 50.58914154 4.30214836 50.58914154 4.30354309 51.74810791 C4.23426247 56.97361607 3.88400724 62.36238986 0.75 66.75 C-1.71876571 68.51340408 -4.21042311 69.812946 -7 71 C-7.66 70.67 -8.32 70.34 -9 70 C-7.71283353 68.99421411 -6.42011342 67.99553202 -5.125 67 C-4.40570312 66.443125 -3.68640625 65.88625 -2.9453125 65.3125 C-1 64 -1 64 1 64 C1.02564096 57.29631378 1.04298715 50.59264049 1.05493164 43.88891602 C1.05991833 41.61482267 1.06671009 39.34073245 1.07543945 37.06665039 C1.12178789 24.66980599 1.12084566 12.354575 0 0 Z " fill="#696FD9" transform="translate(577,336)"/>
<path d="M0 0 C0 0.99 0 1.98 0 3 C-0.66 3 -1.32 3 -2 3 C-2 3.66 -2 4.32 -2 5 C-2.99 5.33 -3.98 5.66 -5 6 C-5.33 6.66 -5.66 7.32 -6 8 C-8.046875 8.859375 -8.046875 8.859375 -10.75 9.75 C-27.04033362 15.32171153 -27.04033362 15.32171153 -41 25 C-43.1640625 25.1953125 -43.1640625 25.1953125 -45.625 25.125 C-46.44226563 25.10695313 -47.25953125 25.08890625 -48.1015625 25.0703125 C-48.72804688 25.04710937 -49.35453125 25.02390625 -50 25 C-50.33 24.34 -50.66 23.68 -51 23 C-50.16529175 22.71503662 -50.16529175 22.71503662 -49.3137207 22.42431641 C-38.51714941 18.70440584 -27.93733824 14.73482609 -17.625 9.8125 C-16.77719971 9.40918457 -15.92939941 9.00586914 -15.0559082 8.59033203 C-9.81947422 6.03904847 -4.87224188 3.19114148 0 0 Z " fill="#646CDB" transform="translate(558,412)"/>
<path d="M0 0 C2.475 0.99 2.475 0.99 5 2 C4.67 6.62 4.34 11.24 4 16 C4.99 16.33 5.98 16.66 7 17 C7.07347656 17.88751953 7.07347656 17.88751953 7.1484375 18.79296875 C7.57002916 23.24875643 8.22596159 26.86057703 10 31 C10 32.32 10 33.64 10 35 C10.66 35 11.32 35 12 35 C12 36.65 12 38.3 12 40 C12.66 40 13.32 40 14 40 C15.60355101 43.50776784 16.22036864 46.14354879 16 50 C13.42944972 46.89453752 12.02585477 43.89508565 10.625 40.125 C10.19703125 38.97386719 9.7690625 37.82273437 9.328125 36.63671875 C8.67070312 34.83654297 8.67070312 34.83654297 8 33 C7.34257812 31.24623047 7.34257812 31.24623047 6.671875 29.45703125 C-0.65306019 9.57821616 -0.65306019 9.57821616 0 0 Z " fill="#636DDF" transform="translate(211,368)"/>
<path d="M0 0 C0.66 1.32 1.32 2.64 2 4 C2.99 4 3.98 4 5 4 C5.82592695 6.89074433 6.0444946 8.78247084 5.4375 11.75 C4.7259375 12.86375 4.7259375 12.86375 4 14 C0.91015625 14.640625 0.91015625 14.640625 -2 15 C-2.19335938 15.92683594 -2.38671875 16.85367187 -2.5859375 17.80859375 C-2.84632813 19.00613281 -3.10671875 20.20367187 -3.375 21.4375 C-3.63023437 22.63246094 -3.88546875 23.82742188 -4.1484375 25.05859375 C-4.42945313 26.02925781 -4.71046875 26.99992187 -5 28 C-5.66 28.33 -6.32 28.66 -7 29 C-6.21782082 24.91478991 -5.42262373 20.83222032 -4.625 16.75 C-4.40328125 15.59113281 -4.1815625 14.43226563 -3.953125 13.23828125 C-3.62441406 11.56572266 -3.62441406 11.56572266 -3.2890625 9.859375 C-3.09006348 8.83295898 -2.89106445 7.80654297 -2.68603516 6.74902344 C-2.05897016 4.23630036 -1.26462527 2.24717799 0 0 Z " fill="#5665EE" transform="translate(216,258)"/>
<path d="M0 0 C5.54649693 0.63388536 8.43432704 3.29617943 12.125 7.3125 C17.40131912 14.87522407 18.89844963 22.96558982 18 32 C16.42572727 38.87888738 14.67798515 44.58378932 9 49 C9.33 47.35 9.66 45.7 10 44 C11.485 43.505 11.485 43.505 13 43 C13.144375 42.05125 13.28875 41.1025 13.4375 40.125 C14 37 14 37 15 35 C15.69749184 25.10933698 15.98666621 16.2666661 9.5390625 8.1640625 C6.68447577 5.07717401 6.68447577 5.07717401 2.875 3.53125 C2.25625 3.3559375 1.6375 3.180625 1 3 C0.67 2.01 0.34 1.02 0 0 Z " fill="#6C73D8" transform="translate(393,309)"/>
<path d="M0 0 C0.33 0 0.66 0 1 0 C1.38736084 21.80742189 0.9700396 42.63967575 -4 64 C-4.33 64 -4.66 64 -5 64 C-5.22162329 62.37675914 -5.42689803 60.751279 -5.625 59.125 C-5.74101563 58.22007812 -5.85703125 57.31515625 -5.9765625 56.3828125 C-5.98429688 55.59648437 -5.99203125 54.81015625 -6 54 C-5.34 53.34 -4.68 52.68 -4 52 C-3.3540901 49.27419843 -2.85363398 46.63898546 -2.4375 43.875 C-2.30819092 43.02711914 -2.17888184 42.17923828 -2.0456543 41.30566406 C-0.18313216 27.64955169 -0.2320858 13.76102118 0 0 Z " fill="#6F78D6" transform="translate(658,309)"/>
<path d="M0 0 C5.75 1.625 5.75 1.625 8 5 C10.56282742 5.72965366 10.56282742 5.72965366 13 6 C13.33 5.34 13.66 4.68 14 4 C16.33294775 3.95758277 18.66702567 3.95907063 21 4 C21.33 4.33 21.66 4.66 22 5 C23.34747084 5.23075082 24.70377565 5.41153063 26.0625 5.5625 C27.361875 5.706875 28.66125 5.85125 30 6 C26.59443874 9.40556126 23.06244338 9.26996638 18.4375 9.4375 C11.377573 9.4082057 6.2988391 7.74471214 1 3 C0.67 2.01 0.34 1.02 0 0 Z " fill="#5467E4" transform="translate(463,356)"/>
<path d="M0 0 C0.33 0 0.66 0 1 0 C1 5.61 1 11.22 1 17 C1.66 16.34 2.32 15.68 3 15 C3.66 15 4.32 15 5 15 C5 19.95 5 24.9 5 30 C5.66 30.33 6.32 30.66 7 31 C6.01 31 5.02 31 4 31 C-1.70859265 20.3310283 -3.33076911 11.65769189 0 0 Z " fill="#6B74E3" transform="translate(457,324)"/>
<path d="M0 0 C0.99 0 1.98 0 3 0 C3 0.66 3 1.32 3 2 C18.51 2 34.02 2 50 2 C50 2.33 50 2.66 50 3 C49.22624023 3.02505615 48.45248047 3.0501123 47.65527344 3.07592773 C32.09544773 3.58421537 16.54515269 4.14945032 1 5 C0.67 3.35 0.34 1.7 0 0 Z " fill="#636ADB" transform="translate(398,224)"/>
<path d="M0 0 C0.66 0 1.32 0 2 0 C2 11.55 2 23.1 2 35 C1.01 35 0.02 35 -1 35 C-0.99476318 34.2886792 -0.98952637 33.5773584 -0.98413086 32.84448242 C-0.96335982 29.62549725 -0.95033942 26.40652617 -0.9375 23.1875 C-0.92912109 22.06794922 -0.92074219 20.94839844 -0.91210938 19.79492188 C-0.90888672 18.72177734 -0.90566406 17.64863281 -0.90234375 16.54296875 C-0.89710693 15.55321045 -0.89187012 14.56345215 -0.88647461 13.54370117 C-0.88930041 10.87607266 -0.88930041 10.87607266 -2 8 C-1.54451823 5.26187393 -0.74685247 2.6798824 0 0 Z " fill="#5B65DC" transform="translate(285,357)"/>
<path d="M0 0 C4.60769417 8.6649116 6.4438368 18.51492716 8.3125 28.0625 C8.49603027 28.97894287 8.67956055 29.89538574 8.86865234 30.83959961 C9.03187988 31.7085083 9.19510742 32.57741699 9.36328125 33.47265625 C9.51063721 34.24875244 9.65799316 35.02484863 9.80981445 35.82446289 C10.01193228 38.1364936 9.69202254 39.79873609 9 42 C7.68373308 38.38026598 7 35.90432869 7 32 C6.34 32 5.68 32 5 32 C4.42934509 28.16845989 3.93290216 24.35615104 3.5625 20.5 C3.01907949 15.50732409 1.84764063 10.91834457 -0.1875 6.3125 C-1.09990863 3.71564467 -0.94176807 2.54277378 0 0 Z " fill="#6D72DE" transform="translate(647,252)"/>
<path d="M0 0 C0.99 0.33 1.98 0.66 3 1 C3 1.66 3 2.32 3 3 C8.445 2.01 8.445 2.01 14 1 C10 4 10 4 7.375 4.375 C6.59125 4.58125 5.8075 4.7875 5 5 C4.29719039 6.65175085 3.63816259 8.32221255 3 10 C1.85349322 11.96203586 0.66414746 13.89954456 -0.5625 15.8125 C-1.18253906 16.78832031 -1.80257813 17.76414063 -2.44140625 18.76953125 C-2.95574219 19.50558594 -3.47007812 20.24164063 -4 21 C-4.33 21 -4.66 21 -5 21 C-5.125 18.625 -5.125 18.625 -5 16 C-4.34 15.34 -3.68 14.68 -3 14 C-0.69951735 9.5343572 -0.40788652 4.92683984 0 0 Z " fill="#6168E3" transform="translate(326,227)"/>
<path d="M0 0 C4.01501864 2.36127423 6.81368849 5.73076933 9.5625 9.4375 C7.41246312 8.47369036 5.78252913 7.66907762 4.1484375 5.94921875 C2.03365945 3.93340814 -0.07094795 3.23019875 -2.8125 2.25 C-3.74835938 1.90582031 -4.68421875 1.56164062 -5.6484375 1.20703125 C-10.61187782 -0.16243338 -13.96113076 0.37383956 -18.6875 2.3125 C-19.99460937 2.83457031 -19.99460937 2.83457031 -21.328125 3.3671875 C-23.59353764 4.25352288 -23.59353764 4.25352288 -24.4375 6.4375 C-25.4275 6.1075 -26.4175 5.7775 -27.4375 5.4375 C-20.41981194 -2.3899213 -9.72284775 -4.34624408 0 0 Z " fill="#656ED6" transform="translate(492.4375,308.5625)"/>
<path d="M0 0 C0.66 0.66 1.32 1.32 2 2 C1.68248779 2.59949463 1.36497559 3.19898926 1.0378418 3.81665039 C-0.41509051 6.56378685 -1.86382219 9.31311777 -3.3125 12.0625 C-3.81201172 13.00544922 -4.31152344 13.94839844 -4.82617188 14.91992188 C-7.43398331 19.87649063 -9.89110696 24.81053966 -12 30 C-12.33 30 -12.66 30 -13 30 C-13 27.36 -13 24.72 -13 22 C-12.01 22 -11.02 22 -10 22 C-10 20.02 -10 18.04 -10 16 C-9.34 15.67 -8.68 15.34 -8 15 C-8.33 13.02 -8.66 11.04 -9 9 C-8.01 9 -7.02 9 -6 9 C-4.96986723 7.35178756 -3.96885372 5.68496298 -3 4 C-2.34 4 -1.68 4 -1 4 C-0.67 2.68 -0.34 1.36 0 0 Z " fill="#6168E4" transform="translate(318,250)"/>
<path d="M0 0 C0 0.66 0 1.32 0 2 C-0.66 2 -1.32 2 -2 2 C-2 2.66 -2 3.32 -2 4 C-2.66 4 -3.32 4 -4 4 C-3.67 5.32 -3.34 6.64 -3 8 C-3.66 8 -4.32 8 -5 8 C-3.74458443 10.51083114 -2.49936512 10.87125446 0 12 C-0.33 12.99 -0.66 13.98 -1 15 C-3.33627037 13.19117843 -5.66907762 11.37818954 -8 9.5625 C-8.66773438 9.04623047 -9.33546875 8.52996094 -10.0234375 7.99804688 C-11.70077134 6.68869954 -13.35264994 5.34687677 -15 4 C-15 3.67 -15 3.34 -15 3 C-12.33333333 3 -9.66666667 3 -7 3 C-1.875 0 -1.875 0 0 0 Z " fill="#6069E4" transform="translate(304,496)"/>
<path d="M0 0 C7.87351619 4.02051891 14.97072473 8.64306682 22 14 C21.01 14.33 20.02 14.66 19 15 C15.8125 13.0625 15.8125 13.0625 13 11 C12.01 11.495 12.01 11.495 11 12 C9.68 12 8.36 12 7 12 C7.66 10.68 8.32 9.36 9 8 C8.2575 7.71125 7.515 7.4225 6.75 7.125 C0.61538462 4.61538462 0.61538462 4.61538462 -2 2 C-1.34 2 -0.68 2 0 2 C0 1.34 0 0.68 0 0 Z " fill="#656CE2" transform="translate(547,129)"/>
<path d="M0 0 C3.625 -0.1875 3.625 -0.1875 7 0 C6.34 1.32 5.68 2.64 5 4 C4.34 4 3.68 4 3 4 C3 4.66 3 5.32 3 6 C-1.02014661 7.56454159 -4.69925681 6.46223974 -8.75 5.5625 C-9.44738281 5.41490234 -10.14476562 5.26730469 -10.86328125 5.11523438 C-12.5772021 4.75131967 -14.28884581 4.37670932 -16 4 C-15.67 3.34 -15.34 2.68 -15 2 C-10.71 2.33 -6.42 2.66 -2 3 C-1.34 2.01 -0.68 1.02 0 0 Z " fill="#5E6BE3" transform="translate(489,210)"/>
<path d="M0 0 C3.5847745 1.28769109 7.16755561 2.58084196 10.75 3.875 C11.76578125 4.23980469 12.7815625 4.60460937 13.828125 4.98046875 C14.8078125 5.33496094 15.7875 5.68945312 16.796875 6.0546875 C17.69760742 6.37937012 18.59833984 6.70405273 19.52636719 7.03857422 C21.76594013 7.90902805 23.87369922 8.88477694 26 10 C21.46089183 11.51303606 17.47150576 10.49050192 13 9 C12.54882812 8.50628906 12.09765625 8.01257813 11.6328125 7.50390625 C9.4701867 5.51201406 7.75588064 5.37005205 4.875 4.9375 C2.1796875 4.52734375 2.1796875 4.52734375 0 4 C-0.33 3.34 -0.66 2.68 -1 2 C-0.67 1.34 -0.34 0.68 0 0 Z " fill="#666EE0" transform="translate(334,426)"/>
<path d="M0 0 C-0.66 2.31 -1.32 4.62 -2 7 C-1.01 7.33 -0.02 7.66 1 8 C-0.61992165 8.86375896 -2.24611861 9.71575854 -3.875 10.5625 C-5.23238281 11.27599609 -5.23238281 11.27599609 -6.6171875 12.00390625 C-7.40351563 12.33261719 -8.18984375 12.66132813 -9 13 C-9.66 12.67 -10.32 12.34 -11 12 C-9.73577236 9.47154472 -8.47154472 9.23577236 -6 8 C-5.67 7.34 -5.34 6.68 -5 6 C-7.475 5.01 -7.475 5.01 -10 4 C-6.86268382 1.90845588 -3.85464592 0 0 0 Z " fill="#6571DF" transform="translate(501,397)"/>
<path d="M0 0 C3.12290635 0.48578543 5.99580359 0.9986012 9 2 C6.10684629 3.15268129 3.21004513 4.29590743 0.3125 5.4375 C-0.50412109 5.76298828 -1.32074219 6.08847656 -2.16210938 6.42382812 C-10.62819188 9.74856498 -10.62819188 9.74856498 -14 10 C-14.66 9.34 -15.32 8.68 -16 8 C-12.535 7.505 -12.535 7.505 -9 7 C-9.33 6.01 -9.66 5.02 -10 4 C-5.545 3.505 -5.545 3.505 -1 3 C-0.67 2.01 -0.34 1.02 0 0 Z " fill="#626CDD" transform="translate(513,531)"/>
<path d="M0 0 C0 0.99 0 1.98 0 3 C-1.98 3.99 -1.98 3.99 -4 5 C-4 5.99 -4 6.98 -4 8 C-4.66 8 -5.32 8 -6 8 C-6.08507812 8.59167969 -6.17015625 9.18335938 -6.2578125 9.79296875 C-7.21187877 12.63006055 -8.48560004 13.54889527 -10.875 15.3125 C-11.92300781 16.11107422 -11.92300781 16.11107422 -12.9921875 16.92578125 C-13.65476562 17.28027344 -14.31734375 17.63476562 -15 18 C-15.99 17.67 -16.98 17.34 -18 17 C-15.94062935 14.91349269 -13.87766489 12.83075945 -11.8125 10.75 C-11.23435547 10.16347656 -10.65621094 9.57695312 -10.06054688 8.97265625 C-6.85617604 5.75018163 -3.62534642 2.75826734 0 0 Z " fill="#6D76D9" transform="translate(285,152)"/>
<path d="M0 0 C0.66 0.33 1.32 0.66 2 1 C-0.97 5.29 -3.94 9.58 -7 14 C-9.31 13.67 -11.62 13.34 -14 13 C-13.67 12.34 -13.34 11.68 -13 11 C-11.35 11 -9.7 11 -8 11 C-8.12375 10.2575 -8.2475 9.515 -8.375 8.75 C-8 6 -8 6 -5.125 3.8125 C-4.09375 3.214375 -3.0625 2.61625 -2 2 C-1.34 1.34 -0.68 0.68 0 0 Z " fill="#F0F5FD" transform="translate(370,422)"/>
<path d="M0 0 C0 3.9967284 -1.51424049 5.4409151 -3.875 8.625 C-4.59429688 9.60726563 -5.31359375 10.58953125 -6.0546875 11.6015625 C-8 14 -8 14 -10 15 C-10.99 16.485 -10.99 16.485 -12 18 C-17.18309859 23 -17.18309859 23 -20 23 C-20 22.34 -20 21.68 -20 21 C-19.34 21 -18.68 21 -18 21 C-18 20.34 -18 19.68 -18 19 C-16.52295788 17.74772516 -15.04172601 16.49833478 -13.5078125 15.31640625 C-11.73237056 13.88235909 -11.73237056 13.88235909 -10 11 C-9.34 11 -8.68 11 -8 11 C-7.73445312 10.41734375 -7.46890625 9.8346875 -7.1953125 9.234375 C-5.96697004 6.93825772 -4.59685061 5.19643982 -2.875 3.25 C-2.33617187 2.63640625 -1.79734375 2.0228125 -1.2421875 1.390625 C-0.83226562 0.93171875 -0.42234375 0.4728125 0 0 Z " fill="#DEE4FC" transform="translate(607,468)"/>
<path d="M0 0 C0.33 0 0.66 0 1 0 C1.33 3.3 1.66 6.6 2 10 C2.66 10 3.32 10 4 10 C4.33 8.68 4.66 7.36 5 6 C7.60018816 9.90028225 7.15085514 13.47434569 7 18 C6.67 16.68 6.34 15.36 6 14 C4.68 14.33 3.36 14.66 2 15 C-1.54076539 5.32612313 -1.54076539 5.32612313 -1 1 C-0.67 0.67 -0.34 0.34 0 0 Z " fill="#5F67E5" transform="translate(566,286)"/>
<path d="M0 0 C1.64258789 0.08507812 1.64258789 0.08507812 3.31835938 0.171875 C5.98390861 0.31155444 8.64824579 0.46275272 11.3125 0.625 C11.3125 0.955 11.3125 1.285 11.3125 1.625 C-12.26988484 2.81888403 -12.26988484 2.81888403 -23.6875 2.625 C-23.6875 2.295 -23.6875 1.965 -23.6875 1.625 C-15.62415537 -0.2288964 -8.23619083 -0.50435951 0 0 Z " fill="#E8EEFE" transform="translate(429.6875,96.375)"/>
<path d="M0 0 C3.45145295 1.72572648 3.95361369 5.44755176 5.17578125 8.94140625 C6.78683256 14.91985732 6.59553481 21.01674447 5 27 C4.67 27 4.34 27 4 27 C3.9498877 26.43079834 3.89977539 25.86159668 3.84814453 25.27514648 C3.61407662 22.66191893 3.3696142 20.04976061 3.125 17.4375 C3.04636719 16.54224609 2.96773438 15.64699219 2.88671875 14.72460938 C2.39701859 9.58275764 1.60387383 4.91270599 0 0 Z " fill="#6F74DB" transform="translate(502,318)"/>
<path d="M0 0 C0.66 1.32 1.32 2.64 2 4 C1.01 4.495 1.01 4.495 0 5 C-1.67514344 7.56198408 -2.02606218 9.28147153 -2.3125 12.375 C-3.1882794 16.99274593 -4.80582611 18.64202232 -8 22 C-9.2051933 18.38442009 -8.74896968 17.85748606 -7.12890625 14.55078125 C-6.71962891 13.70322266 -6.31035156 12.85566406 -5.88867188 11.98242188 C-5.2322168 10.66081055 -5.2322168 10.66081055 -4.5625 9.3125 C-4.12873047 8.41982422 -3.69496094 7.52714844 -3.24804688 6.60742188 C-2.17408871 4.40049686 -1.091161 2.19845687 0 0 Z " fill="#E6EBFD" transform="translate(314,261)"/>
<path d="M0 0 C0.33 0 0.66 0 1 0 C1 2.31 1 4.62 1 7 C0.34 7 -0.32 7 -1 7 C-1.1546875 8.5778125 -1.1546875 8.5778125 -1.3125 10.1875 C-2.06796697 16.18806621 -3.22521469 22.2170871 -5 28 C-5.66 28.33 -6.32 28.66 -7 29 C-6.21782082 24.91478991 -5.42262373 20.83222032 -4.625 16.75 C-4.40328125 15.59113281 -4.1815625 14.43226563 -3.953125 13.23828125 C-3.62441406 11.56572266 -3.62441406 11.56572266 -3.2890625 9.859375 C-3.09006348 8.83295898 -2.89106445 7.80654297 -2.68603516 6.74902344 C-2.05897016 4.23630036 -1.26462527 2.24717799 0 0 Z " fill="#6B73DA" transform="translate(216,258)"/>
<path d="M0 0 C0.66 0 1.32 0 2 0 C3.00399524 2.62353518 4.00334445 5.24867795 5 7.875 C5.28617188 8.62136719 5.57234375 9.36773437 5.8671875 10.13671875 C8 15.7734375 8 15.7734375 8 18 C7.34 18 6.68 18 6 18 C5.34 16.35 4.68 14.7 4 13 C3.34 13 2.68 13 2 13 C-0.28571429 4.57142857 -0.28571429 4.57142857 0 0 Z " fill="#6771DF" transform="translate(639,234)"/>
<path d="M0 0 C6.24112277 0.49382621 11.35130576 3.34181862 16.875 6.0625 C18.33679688 6.77116211 18.33679688 6.77116211 19.828125 7.49414062 C22.22216874 8.65595597 24.61254494 9.8247207 27 11 C23.35364851 12.2154505 22.14585555 11.36946997 18.80712891 9.75073242 C18.14890137 9.42049072 17.49067383 9.09024902 16.8125 8.75 C15.46341878 8.09262657 14.11316573 7.43765225 12.76171875 6.78515625 C12.11380371 6.4720752 11.46588867 6.15899414 10.79833984 5.83642578 C8.61574317 4.82127832 6.39777076 3.97820895 4.125 3.1875 C1 2 1 2 0 0 Z " fill="#656CD8" transform="translate(512,113)"/>
<path d="M0 0 C3.625 0.375 3.625 0.375 7 1 C7.33 2.65 7.66 4.3 8 6 C8.66 6 9.32 6 10 6 C10.33 6.99 10.66 7.98 11 9 C6.22390502 7.35821735 2.20617096 4.73453298 -2 2 C-1.34 1.34 -0.68 0.68 0 0 Z " fill="#EEF2FB" transform="translate(296,402)"/>
<path d="M0 0 C2.94044914 2.56734079 4.52743047 5.49090991 6.3125 8.9375 C6.86550781 9.97777344 7.41851563 11.01804688 7.98828125 12.08984375 C9 15 9 15 8.16796875 17.37890625 C7.78253906 17.91386719 7.39710938 18.44882813 7 19 C4.14671221 16.61318978 3.51281665 14.82372462 2.9375 11.1875 C2.26125514 7.30619544 1.36637695 3.70873743 0 0 Z " fill="#656BDB" transform="translate(630,215)"/>
<path d="M0 0 C0 2.62113708 -0.31292445 4.50935112 -1 7 C-1.66 7 -2.32 7 -3 7 C-3.33 7.99 -3.66 8.98 -4 10 C-5.64429829 11.68873879 -7.31384218 13.35305515 -9 15 C-10.35555293 16.64864545 -11.69631653 18.31003995 -13 20 C-13.66 19.67 -14.32 19.34 -15 19 C-13.43905326 16.9571299 -11.87629071 14.91569142 -10.3125 12.875 C-9.87744141 12.30523437 -9.44238281 11.73546875 -8.99414062 11.1484375 C-6.0834415 7.35374828 -3.08351746 3.65577385 0 0 Z " fill="#6D71DC" transform="translate(261,176)"/>
<path d="M0 0 C1.77305664 0.25587405 3.54344608 0.53027739 5.3125 0.8125 C6.79169922 1.03873047 6.79169922 1.03873047 8.30078125 1.26953125 C11.15860552 2.04292219 12.23217088 2.67390905 14 5 C14.6875 7.1875 14.6875 7.1875 15 9 C9.26800429 7.53025751 4.66416601 4.55513098 0 1 C0 0.67 0 0.34 0 0 Z " fill="#6770E0" transform="translate(306,512)"/>
<path d="M0 0 C1.04285156 -0.01417969 2.08570313 -0.02835937 3.16015625 -0.04296875 C5.9375 0.1875 5.9375 0.1875 8.9375 2.1875 C8.05707031 2.16429687 7.17664063 2.14109375 6.26953125 2.1171875 C5.10808594 2.09914063 3.94664062 2.08109375 2.75 2.0625 C1.60144531 2.03929687 0.45289063 2.01609375 -0.73046875 1.9921875 C-4.78198916 2.22967404 -7.81660757 2.84193617 -10.625 5.875 C-11.099375 6.308125 -11.57375 6.74125 -12.0625 7.1875 C-14.25 6.875 -14.25 6.875 -16.0625 6.1875 C-10.51538477 1.27073877 -7.5238694 0.04661629 0 0 Z " fill="#6E72D9" transform="translate(384.0625,306.8125)"/>
<path d="M0 0 C0 3 0 3 -1.28515625 4.61328125 C-3.17794433 6.42286986 -5.07678708 8.2227118 -7 10 C-7.62132812 10.60199219 -8.24265625 11.20398438 -8.8828125 11.82421875 C-9.47835937 12.37722656 -10.07390625 12.93023437 -10.6875 13.5 C-11.22761719 14.0053125 -11.76773438 14.510625 -12.32421875 15.03125 C-14 16 -14 16 -16.20703125 15.65625 C-16.79871094 15.4396875 -17.39039063 15.223125 -18 15 C-17.45472656 14.5875 -16.90945313 14.175 -16.34765625 13.75 C-10.67086529 9.40264556 -5.2871209 4.81215495 0 0 Z " fill="#E1EAFE" transform="translate(585,491)"/>
<path d="M0 0 C4.85967024 2.50346649 8.27856704 6.08552441 12 10 C10.02 10.99 10.02 10.99 8 12 C6.5 10.625 6.5 10.625 5 9 C5 8.34 5 7.68 5 7 C4.34 7 3.68 7 3 7 C0 2.61538462 0 2.61538462 0 0 Z " fill="#646EDE" transform="translate(586,159)"/>
<path d="M0 0 C0.99 0 1.98 0 3 0 C3 0.66 3 1.32 3 2 C5.31 1.34 7.62 0.68 10 0 C10.33 0.66 10.66 1.32 11 2 C13.01669827 3.13350534 13.01669827 3.13350534 15 4 C12.63300992 5.49693208 11.51538217 6.0958646 8.7109375 5.57421875 C7.94007813 5.28160156 7.16921875 4.98898437 6.375 4.6875 C5.59898437 4.40261719 4.82296875 4.11773438 4.0234375 3.82421875 C2 3 2 3 0 2 C0 1.34 0 0.68 0 0 Z " fill="#656EE6" transform="translate(338,529)"/>
<path d="M0 0 C1.875 0.6875 1.875 0.6875 4 2 C4.69658363 3.65438613 5.36096883 5.32254318 6 7 C6.70125 7.639375 7.4025 8.27875 8.125 8.9375 C10 11 10 11 10.25 14.25 C10.1675 15.1575 10.085 16.065 10 17 C7.45616883 13.76737762 5.37788083 10.3673798 3.3125 6.8125 C2.68988281 5.74644531 2.06726563 4.68039063 1.42578125 3.58203125 C0 1 0 1 0 0 Z " fill="#656ED7" transform="translate(540,240)"/>
<path d="M0 0 C1.32 0.33 2.64 0.66 4 1 C1.68923915 2.50273996 -0.62347911 4.00229552 -2.9375 5.5 C-3.59685547 5.92925781 -4.25621094 6.35851562 -4.93554688 6.80078125 C-9.88671875 10 -9.88671875 10 -11 10 C-11 8.02 -11 6.04 -11 4 C-10.67 4.66 -10.34 5.32 -10 6 C-8.68 6 -7.36 6 -6 6 C-6 5.34 -6 4.68 -6 4 C-5.01 4 -4.02 4 -3 4 C-3 3.34 -3 2.68 -3 2 C-2.01 2 -1.02 2 0 2 C0 1.34 0 0.68 0 0 Z " fill="#666DE0" transform="translate(556,511)"/>
<path d="M0 0 C1.32 0.33 2.64 0.66 4 1 C4 1.66 4 2.32 4 3 C4.9075 3.2475 5.815 3.495 6.75 3.75 C10.10351489 5.03981342 11.67708236 6.31971042 14 9 C13.01 10.485 13.01 10.485 12 12 C9.99698881 10.19073245 7.99751914 8.377813 6 6.5625 C5.42765625 6.04623047 4.8553125 5.52996094 4.265625 4.99804688 C2.82480421 3.6858708 1.41014216 2.34509096 0 1 C0 0.67 0 0.34 0 0 Z " fill="#6970E0" transform="translate(272,484)"/>
<path d="M0 0 C-2.34488245 2.94851556 -3.42333987 3.93035506 -7.234375 4.390625 C-8.39453125 4.34421875 -9.5546875 4.2978125 -10.75 4.25 C-11.92046875 4.21390625 -13.0909375 4.1778125 -14.296875 4.140625 C-15.18890625 4.09421875 -16.0809375 4.0478125 -17 4 C-17 3.34 -17 2.68 -17 2 C-14.54316882 1.47097431 -12.08497874 0.95149191 -9.625 0.4375 C-8.92632812 0.28603516 -8.22765625 0.13457031 -7.5078125 -0.02148438 C-2.2265625 -1.11328125 -2.2265625 -1.11328125 0 0 Z " fill="#656DE8" transform="translate(477,406)"/>
<path d="M0 0 C2.31983361 2.31983361 4.14691209 4.44142703 6.0625 7.0625 C7.63624466 9.21288393 9.11213037 11.11213037 11 13 C10.01 13.33 9.02 13.66 8 14 C7.566875 13.525625 7.13375 13.05125 6.6875 12.5625 C4.97690387 10.76313043 4.97690387 10.76313043 2 10 C1.34 6.7 0.68 3.4 0 0 Z " fill="#6C74DE" transform="translate(495,424)"/>
<path d="M0 0 C0 0.99 0 1.98 0 3 C-1.15628906 3.52400391 -1.15628906 3.52400391 -2.3359375 4.05859375 C-3.33882812 4.51363281 -4.34171875 4.96867187 -5.375 5.4375 C-6.87160156 6.11619141 -6.87160156 6.11619141 -8.3984375 6.80859375 C-9.94307583 7.51597316 -11.48044922 8.24022461 -13 9 C-14.99960012 9.039992 -17.00047242 9.04346799 -19 9 C-16.44248328 6.44248328 -14.01431029 5.74909413 -10.625 4.5 C-6.98180911 3.15127922 -3.43245417 1.82613325 0 0 Z " fill="#6E74DC" transform="translate(535,424)"/>
<path d="M0 0 C1.31677734 0.00966797 1.31677734 0.00966797 2.66015625 0.01953125 C4.9375 0.1875 4.9375 0.1875 6.9375 1.1875 C6.6075 2.1775 6.2775 3.1675 5.9375 4.1875 C5.6075 3.8575 5.2775 3.5275 4.9375 3.1875 C0.35272012 3.63698822 -3.7414261 4.6066193 -8.0625 6.1875 C-8.0625 4.8675 -8.0625 3.5475 -8.0625 2.1875 C-4.79122414 0.00664943 -3.78873277 -0.06137859 0 0 Z " fill="#E9EEFA" transform="translate(504.0625,392.8125)"/>
<path d="M0 0 C0 3 0 3 -0.9375 4.75 C-2.36139207 7.76530084 -2.62011643 10.70767573 -3 14 C-4.32 14 -5.64 14 -7 14 C-6.69723124 7.94462479 -3.72245962 4.48516542 0 0 Z " fill="#6871DD" transform="translate(367,314)"/>
<path d="M0 0 C-1.74373968 3.01191399 -3.11847904 4.72504283 -6.4921875 5.77734375 C-8.99049108 6.26214204 -11.47590991 6.67726329 -14 7 C-11.84767979 4.71315977 -9.63943055 2.94963331 -7 1.25 C-6.319375 0.80140625 -5.63875 0.3528125 -4.9375 -0.109375 C-3 -1 -3 -1 0 0 Z " fill="#666FDD" transform="translate(320,130)"/>
<path d="M0 0 C1.8125 0.0625 1.8125 0.0625 4 1 C5.81278756 4.4960903 7 7.03981755 7 11 C7.66 11 8.32 11 9 11 C9.33 11.99 9.66 12.98 10 14 C9.01 14.495 9.01 14.495 8 15 C6.66407203 12.6889639 5.33115569 10.37628245 4 8.0625 C3.6184375 7.40314453 3.236875 6.74378906 2.84375 6.06445312 C0 1.11328125 0 1.11328125 0 0 Z " fill="#686FD9" transform="translate(234,433)"/>
<path d="M0 0 C0.33 1.32 0.66 2.64 1 4 C-0.01320313 4.38091797 -0.01320313 4.38091797 -1.046875 4.76953125 C-2.38492188 5.28580078 -2.38492188 5.28580078 -3.75 5.8125 C-4.63171875 6.14894531 -5.5134375 6.48539063 -6.421875 6.83203125 C-8.93039808 7.96846822 -10.87279005 9.26542927 -13 11 C-13.66 10.34 -14.32 9.68 -15 9 C-10.05 6.03 -5.1 3.06 0 0 Z " fill="#DEE7FE" transform="translate(559,512)"/>
<path d="M0 0 C0.66 0.66 1.32 1.32 2 2 C1.6875 4.0625 1.6875 4.0625 1 7 C0.80127604 9.27113099 0.6263818 11.54151844 0.4765625 13.81640625 C-0.1020809 16.46773133 -1.26128802 17.94980753 -3 20 C-2.69055299 17.41626766 -2.37756043 14.83304867 -2.0625 12.25 C-1.97548828 11.52039063 -1.88847656 10.79078125 -1.79882812 10.0390625 C-1.37972591 6.62415558 -0.882726 3.32396457 0 0 Z " fill="#DFE7FC" transform="translate(292,322)"/>
<path d="M0 0 C2 3 2 3 1.85986328 5.26831055 C1.68181152 6.13238525 1.50375977 6.99645996 1.3203125 7.88671875 C1.13339844 8.82451172 0.94648438 9.76230469 0.75390625 10.72851562 C0.54636719 11.70498047 0.33882813 12.68144531 0.125 13.6875 C-0.07480469 14.67556641 -0.27460938 15.66363281 -0.48046875 16.68164062 C-0.97593534 19.12358313 -1.48282734 21.56257853 -2 24 C-2.33 24 -2.66 24 -3 24 C-2.88509088 21.31173136 -2.75836801 18.62486531 -2.625 15.9375 C-2.5940625 15.18533203 -2.563125 14.43316406 -2.53125 13.65820312 C-2.27941541 8.81038719 -1.50831635 4.61691957 0 0 Z " fill="#676FDC" transform="translate(292,314)"/>
<path d="M0 0 C0.33 0.99 0.66 1.98 1 3 C0.67 3.66 0.34 4.32 0 5 C-0.66 5 -1.32 5 -2 5 C-2.33 5.99 -2.66 6.98 -3 8 C-5.375 9.25 -5.375 9.25 -8 10 C-8.99 9.67 -9.98 9.34 -11 9 C-7.37 6.03 -3.74 3.06 0 0 Z " fill="#666FDC" transform="translate(297,142)"/>
<path d="M0 0 C4.56048012 3.61251516 8.01665146 6.98797445 11 12 C10.01 12 9.02 12 8 12 C8 11.34 8 10.68 8 10 C7.34 10 6.68 10 6 10 C6 9.34 6 8.68 6 8 C5.01 7.67 4.02 7.34 3 7 C0 2.66666667 0 2.66666667 0 0 Z " fill="#6970D8" transform="translate(599,172)"/>
<path d="M0 0 C2 2 2 2 3.5 4.5625 C4.76866837 7.10406871 4.76866837 7.10406871 7 8 C7.33 8.99 7.66 9.98 8 11 C8.66 11.66 9.32 12.32 10 13 C7 13 7 13 4.73828125 10.8828125 C3.93777344 9.97273438 3.13726562 9.06265625 2.3125 8.125 C1.50425781 7.22007812 0.69601562 6.31515625 -0.13671875 5.3828125 C-2 3 -2 3 -2 1 C-1.34 0.67 -0.68 0.34 0 0 Z " fill="#6A71DF" transform="translate(261,468)"/>
<path d="M0 0 C0 0.99 0 1.98 0 3 C0.66 3.33 1.32 3.66 2 4 C2 4.66 2 5.32 2 6 C0.8553125 6.1546875 0.8553125 6.1546875 -0.3125 6.3125 C-3.02954673 6.75593985 -3.02954673 6.75593985 -4.5 8.5625 C-6 10 -6 10 -8.6875 10.1875 C-9.450625 10.125625 -10.21375 10.06375 -11 10 C-10.278125 9.443125 -9.55625 8.88625 -8.8125 8.3125 C-6.02417676 6.01987867 -3.51572008 3.58560119 -1 1 C-0.67 0.67 -0.34 0.34 0 0 Z " fill="#E5ECFA" transform="translate(502,354)"/>
<path d="M0 0 C0.33 0.66 0.66 1.32 1 2 C2.32 2 3.64 2 5 2 C3.60667426 5.36720387 2.0210714 6.9859524 -1 9 C-1.09765625 2.84765625 -1.09765625 2.84765625 -1 1 C-0.67 0.67 -0.34 0.34 0 0 Z " fill="#5966E1" transform="translate(210,286)"/>
<path d="M0 0 C1 3 1 3 0.14453125 4.90234375 C-2.29945636 8.6364128 -4.63590909 12.00969697 -8 15 C-8.33 13.68 -8.66 12.36 -9 11 C-8.0409375 10.5978125 -8.0409375 10.5978125 -7.0625 10.1875 C-4.66868314 9.11332248 -4.66868314 9.11332248 -4 6 C-3.34 6 -2.68 6 -2 6 C-1.34 4.02 -0.68 2.04 0 0 Z " fill="#686CD7" transform="translate(505,345)"/>
<path d="M0 0 C0.66666667 1.33333333 1.33333333 2.66666667 2 4 C2.3403125 4.5775 2.680625 5.155 3.03125 5.75 C4.26492323 8.61530556 4.42241644 11.14371871 4.625 14.25 C4.69976563 15.32765625 4.77453125 16.4053125 4.8515625 17.515625 C4.92503906 18.74539063 4.92503906 18.74539063 5 20 C1.72679447 13.82360349 -0.55618343 7.04499011 0 0 Z " fill="#6C72D9" transform="translate(569,300)"/>
<path d="M0 0 C0.33 0 0.66 0 1 0 C1.61279038 4.90232302 -0.22617142 9.02943602 -3 13 C-3.99 13.33 -4.98 13.66 -6 14 C-4.50829734 9.0276578 -2.39542583 4.58154261 0 0 Z " fill="#6A70DC" transform="translate(232,218)"/>
<path d="M0 0 C0.66 0.33 1.32 0.66 2 1 C1.34 2.32 0.68 3.64 0 5 C-5.61 4.67 -11.22 4.34 -17 4 C-17 3.67 -17 3.34 -17 3 C-8.585 2.505 -8.585 2.505 0 2 C0 1.34 0 0.68 0 0 Z " fill="#686ED1" transform="translate(467,224)"/>
<path d="M0 0 C3.3 0 6.6 0 10 0 C10.66 1.98 11.32 3.96 12 6 C12.66 6 13.32 6 14 6 C14 7.65 14 9.3 14 11 C12.26611099 8.77071413 10.93967667 6.86030386 9.8125 4.25 C8.26695368 1.81760199 8.26695368 1.81760199 6.03125 1.68359375 C4.01807185 1.68713808 2.00645226 1.8355367 0 2 C0 1.34 0 0.68 0 0 Z " fill="#656DD3" transform="translate(384,213)"/>
<path d="M0 0 C1.67542976 0.28604898 3.34385343 0.61781233 5 1 C3.50902342 4.7952131 1.24299151 6.61042731 -2 9 C-1.835 8.4225 -1.67 7.845 -1.5 7.25 C-0.85537969 4.73335631 -0.85537969 4.73335631 -1 1 C-0.67 0.67 -0.34 0.34 0 0 Z " fill="#606AE0" transform="translate(596,474)"/>
<path d="M0 0 C1 3 1 3 0.375 5.3125 C-1.35251833 8.68901309 -3.48959474 11.15927826 -6 14 C-6.66 13.67 -7.32 13.34 -8 13 C-5.36 8.71 -2.72 4.42 0 0 Z " fill="#E2E9FD" transform="translate(628,438)"/>
<path d="M0 0 C0.66 0 1.32 0 2 0 C1.54619105 1.89692143 1.08675008 3.79249595 0.625 5.6875 C0.36976563 6.74324219 0.11453125 7.79898437 -0.1484375 8.88671875 C-0.91905489 11.70406766 -1.85498543 14.31668325 -3 17 C-3.33 17 -3.66 17 -4 17 C-4.37402612 11.88830974 -3.13463962 8.61082158 -1 4 C-0.62691369 2.67723944 -0.26953585 1.34767923 0 0 Z " fill="#666ED2" transform="translate(649,384)"/>
<path d="M0 0 C4.95 1.98 9.9 3.96 15 6 C15 6.33 15 6.66 15 7 C10.243037 7.33188114 7.93353579 6.62235719 4 4 C2.34630643 3.30177383 0.68272986 2.62501395 -1 2 C-0.67 1.34 -0.34 0.68 0 0 Z " fill="#686ED2" transform="translate(359,394)"/>
<path d="M0 0 C1.134375 0.020625 2.26875 0.04125 3.4375 0.0625 C0.69652195 2.80347805 -1.07247793 3.04823859 -4.91796875 3.16015625 C-6.18253906 3.14855469 -7.44710938 3.13695312 -8.75 3.125 C-10.02230469 3.11597656 -11.29460937 3.10695313 -12.60546875 3.09765625 C-14.06919922 3.08025391 -14.06919922 3.08025391 -15.5625 3.0625 C-15.5625 2.7325 -15.5625 2.4025 -15.5625 2.0625 C-14.78003906 2.00191406 -13.99757813 1.94132812 -13.19140625 1.87890625 C-12.17949219 1.79511719 -11.16757812 1.71132813 -10.125 1.625 C-9.11566406 1.54378906 -8.10632813 1.46257812 -7.06640625 1.37890625 C-3.58548689 0.93903968 -3.91624073 0.06870598 0 0 Z " fill="#676FD7" transform="translate(489.5625,361.9375)"/>
<path d="M0 0 C5.75 1.625 5.75 1.625 8 5 C8.99 5.33 9.98 5.66 11 6 C11 6.66 11 7.32 11 8 C7.40924853 6.66629231 4.15378602 5.19012918 1 3 C0.67 2.01 0.34 1.02 0 0 Z " fill="#6C76D7" transform="translate(463,356)"/>
<path d="M0 0 C1.1171875 3.71875 1.1171875 3.71875 0.0625 6.25 C-0.4634375 7.11625 -0.4634375 7.11625 -1 8 C-1.66 8 -2.32 8 -3 8 C-3.33 8.99 -3.66 9.98 -4 11 C-4.65234375 9.234375 -4.65234375 9.234375 -5 7 C-4.00390625 5.078125 -4.00390625 5.078125 -2.5625 3.25 C-2.08941406 2.63640625 -1.61632812 2.0228125 -1.12890625 1.390625 C-0.75636719 0.93171875 -0.38382812 0.4728125 0 0 Z " fill="#6871E0" transform="translate(463,315)"/>
<path d="M0 0 C0.66 0.99 1.32 1.98 2 3 C0.33248852 6.94139078 -2.22710649 9.7892812 -5 13 C-5.33 12.34 -5.66 11.68 -6 11 C-4.78515625 8.3984375 -4.78515625 8.3984375 -3.0625 5.375 C-2.21365234 3.87066406 -2.21365234 3.87066406 -1.34765625 2.3359375 C-0.90292969 1.56507813 -0.45820313 0.79421875 0 0 Z " fill="#DFE7FD" transform="translate(325,241)"/>
<path d="M0 0 C1.32 0.66 2.64 1.32 4 2 C0.71508627 4.18994248 -0.83095639 4.35277339 -4.6875 4.625 C-6.17830078 4.73714844 -6.17830078 4.73714844 -7.69921875 4.8515625 C-8.45847656 4.90054687 -9.21773438 4.94953125 -10 5 C-7.00937337 3.00624891 -4.39085683 2.10571418 -1 1 C-0.67 0.67 -0.34 0.34 0 0 Z " fill="#E5F0FE" transform="translate(471,403)"/>
<path d="M0 0 C0.33 0 0.66 0 1 0 C1.36122881 1.31057393 1.71380311 2.62353624 2.0625 3.9375 C2.25972656 4.66839844 2.45695312 5.39929688 2.66015625 6.15234375 C2.77230469 6.76207031 2.88445312 7.37179687 3 8 C2.67 8.33 2.34 8.66 2 9 C1.92794489 10.68608966 1.91613932 12.37500659 1.9375 14.0625 C1.94652344 14.98160156 1.95554687 15.90070313 1.96484375 16.84765625 C1.97644531 17.55792969 1.98804688 18.26820313 2 19 C-0.52775351 15.20836973 -0.22443035 12.19125969 -0.125 7.8125 C-0.11597656 7.06291016 -0.10695313 6.31332031 -0.09765625 5.54101562 C-0.07412578 3.69387346 -0.03825561 1.84689588 0 0 Z " fill="#666CD7" transform="translate(359,328)"/>
<path d="M0 0 C1.29315061 0.95632999 2.58446853 1.91513851 3.875 2.875 C4.59429687 3.40867187 5.31359375 3.94234375 6.0546875 4.4921875 C8 6 8 6 10 8 C6.25 9.125 6.25 9.125 4 8 C4 7.01 4 6.02 4 5 C2.68 4.34 1.36 3.68 0 3 C0 2.01 0 1.02 0 0 Z " fill="#E4E9FC" transform="translate(292,502)"/>
<path d="M0 0 C2.475 0.99 2.475 0.99 5 2 C5 2.66 5 3.32 5 4 C6.65 3.67 8.3 3.34 10 3 C9.67 4.32 9.34 5.64 9 7 C5.37 5.35 1.74 3.7 -2 2 C-1.34 1.34 -0.68 0.68 0 0 Z " fill="#E7EDFD" transform="translate(315,414)"/>
<path d="M0 0 C2.64 0.33 5.28 0.66 8 1 C8 2.32 8 3.64 8 5 C6.35 4.67 4.7 4.34 3 4 C3 3.01 3 2.02 3 1 C1.68 1.33 0.36 1.66 -1 2 C-0.67 1.34 -0.34 0.68 0 0 Z " fill="#5968E5" transform="translate(566,407)"/>
<path d="M0 0 C0.66 0.33 1.32 0.66 2 1 C0.21825212 3.30142435 -1.16304165 4.80034391 -4.046875 5.48828125 C-6.0246611 5.72323102 -8.01271872 5.86751458 -10 6 C-6.87511433 3.47605388 -3.68685613 1.60298093 0 0 Z " fill="#E1E9FC" transform="translate(508,401)"/>
<path d="M0 0 C-0.33 0.99 -0.66 1.98 -1 3 C-4.63 3.33 -8.26 3.66 -12 4 C-11 2 -11 2 -8.8125 0.875 C-5.73230669 -0.08328236 -3.20690052 -0.14915816 0 0 Z " fill="#FCFEEF" transform="translate(512,390)"/>
<path d="M0 0 C2.15377564 2.62198774 3.40072174 4.64404172 4 8 C3.01 8.33 2.02 8.66 1 9 C0.87625 8.195625 0.7525 7.39125 0.625 6.5625 C0.315625 5.2940625 0.315625 5.2940625 0 4 C-0.66 3.67 -1.32 3.34 -2 3 C-1.34 2.01 -0.68 1.02 0 0 Z " fill="#E5ECFB" transform="translate(395,220)"/>
<path d="M0 0 C0.99 0.66 1.98 1.32 3 2 C1.02 4.97 1.02 4.97 -1 8 C-2.0625 6.1875 -2.0625 6.1875 -3 4 C-2.67 3.01 -2.34 2.02 -2 1 C-1.34 0.67 -0.68 0.34 0 0 Z " fill="#606BE0" transform="translate(623,441)"/>
<path d="M0 0 C1 3 1 3 0.00390625 5.48046875 C-0.47175781 6.37378906 -0.94742188 7.26710938 -1.4375 8.1875 C-1.91058594 9.08855469 -2.38367188 9.98960937 -2.87109375 10.91796875 C-3.24363281 11.60503906 -3.61617187 12.29210937 -4 13 C-5.11672285 9.64983146 -4.92467164 9.07440438 -3.6875 5.9375 C-3.42324219 5.24527344 -3.15898438 4.55304688 -2.88671875 3.83984375 C-2 2 -2 2 0 0 Z " fill="#6B6EDB" transform="translate(638,416)"/>
<path d="M0 0 C0 1.65 0 3.3 0 5 C-3.37992169 4.46228519 -6.68737889 3.85696068 -10 3 C-8.70990357 2.49596232 -7.41786211 1.99690074 -6.125 1.5 C-5.04605469 1.08234375 -5.04605469 1.08234375 -3.9453125 0.65625 C-2 0 -2 0 0 0 Z " fill="#6D77E0" transform="translate(490,401)"/>
<path d="M0 0 C1.32 0 2.64 0 4 0 C4 0.66 4 1.32 4 2 C5.98 2.66 7.96 3.32 10 4 C10 4.66 10 5.32 10 6 C8.5164999 5.57742724 7.03823576 5.13643678 5.5625 4.6875 C4.73878906 4.44386719 3.91507812 4.20023437 3.06640625 3.94921875 C2.04353516 3.47935547 2.04353516 3.47935547 1 3 C0.67 2.01 0.34 1.02 0 0 Z " fill="#6B70D6" transform="translate(370,359)"/>
<path d="M0 0 C0.66 0 1.32 0 2 0 C1.27991594 4.60853797 -0.31295939 8.67237409 -2 13 C-2.33 13 -2.66 13 -3 13 C-2.88490339 11.58249437 -2.75746342 10.16598831 -2.625 8.75 C-2.55539062 7.96109375 -2.48578125 7.1721875 -2.4140625 6.359375 C-1.98492887 3.914123 -1.21399362 2.15163097 0 0 Z " fill="#616BDD" transform="translate(303,280)"/>
<path d="M0 0 C0.99 0.33 1.98 0.66 3 1 C3.33 1.99 3.66 2.98 4 4 C4.99 4.33 5.98 4.66 7 5 C7.33 5.99 7.66 6.98 8 8 C7.34 8.66 6.68 9.32 6 10 C6 9.34 6 8.68 6 8 C5.01 7.67 4.02 7.34 3 7 C0 2.66666667 0 2.66666667 0 0 Z " fill="#6167E5" transform="translate(551,259)"/>
<path d="M0 0 C2 3 2 3 2 5 C0.70766393 6.37310707 -0.62437146 7.71034824 -2 9 C-2.99 8.67 -3.98 8.34 -5 8 C-3.35 5.36 -1.7 2.72 0 0 Z " fill="#676EDE" transform="translate(378,411)"/>
<path d="M0 0 C0.99 0 1.98 0 3 0 C2.67 2.31 2.34 4.62 2 7 C0.68 7 -0.64 7 -2 7 C-2 5.35 -2 3.7 -2 2 C-1.34 2 -0.68 2 0 2 C0 1.34 0 0.68 0 0 Z " fill="#5764F0" transform="translate(501,397)"/>
<path d="M0 0 C2.52259061 1.97420135 2.9929808 2.96745642 3.6875 6.1875 C3.790625 7.115625 3.89375 8.04375 4 9 C3.01 9.495 3.01 9.495 2 10 C1.01 7.03 0.02 4.06 -1 1 C-0.67 0.67 -0.34 0.34 0 0 Z " fill="#E8ECFE" transform="translate(642,234)"/>
<path d="M0 0 C1.45922693 0.11409593 2.91740598 0.24165544 4.375 0.375 C5.59316406 0.47941406 5.59316406 0.47941406 6.8359375 0.5859375 C9 1 9 1 11 3 C6.47907032 4.45606519 3.48351204 3.27032841 -1 2 C-0.67 1.34 -0.34 0.68 0 0 Z " fill="#6873D9" transform="translate(493,216)"/>
<path d="M0 0 C0.66 0 1.32 0 2 0 C2 0.99 2 1.98 2 3 C3.65 3 5.3 3 7 3 C3.55549263 5.29633824 1.06187717 5.54016485 -3 6 C-2.34 5.67 -1.68 5.34 -1 5 C-0.34444881 2.47266765 -0.34444881 2.47266765 0 0 Z " fill="#626AE0" transform="translate(366,214)"/>
<path d="M0 0 C-0.5625 1.9375 -0.5625 1.9375 -2 4 C-5.5 4.875 -5.5 4.875 -9 5 C-9.66 4.34 -10.32 3.68 -11 3 C-9.54293274 2.49632243 -8.08429904 1.99717444 -6.625 1.5 C-5.81289063 1.2215625 -5.00078125 0.943125 -4.1640625 0.65625 C-2 0 -2 0 0 0 Z " fill="#E4E9FD" transform="translate(508,538)"/>
<path d="M0 0 C1.65 0 3.3 0 5 0 C2.45217026 2.97246802 -0.45340883 4.41535288 -4 6 C-4.66 6 -5.32 6 -6 6 C-6 5.34 -6 4.68 -6 4 C-4.7934375 3.566875 -4.7934375 3.566875 -3.5625 3.125 C-0.8673532 2.26737432 -0.8673532 2.26737432 0 0 Z " fill="#6B72D4" transform="translate(539,521)"/>
<path d="M0 0 C3.63 1.65 7.26 3.3 11 5 C7.29847322 5.92538169 6.36541838 6.08174162 3 5 C3 4.34 3 3.68 3 3 C2.01 2.67 1.02 2.34 0 2 C0 1.34 0 0.68 0 0 Z " fill="#6870D4" transform="translate(312,415)"/>
<path d="M0 0 C0.99 0.66 1.98 1.32 3 2 C0.1875 4.0625 0.1875 4.0625 -3 6 C-3.99 5.67 -4.98 5.34 -6 5 C-6 4.34 -6 3.68 -6 3 C-4.02 2.67 -2.04 2.34 0 2 C0 1.34 0 0.68 0 0 Z " fill="#676DE0" transform="translate(399,357)"/>
<path d="M0 0 C0.66 0.66 1.32 1.32 2 2 C0.35 4.97 -1.3 7.94 -3 11 C-3.66 9.68 -4.32 8.36 -5 7 C-4.34 6.01 -3.68 5.02 -3 4 C-2.34 4 -1.68 4 -1 4 C-0.67 2.68 -0.34 1.36 0 0 Z " fill="#6770D4" transform="translate(318,250)"/>
<path d="M0 0 C0 0.99 0 1.98 0 3 C-3.63 3 -7.26 3 -11 3 C-6.75707862 0.87853931 -4.7245591 0 0 0 Z " fill="#E8EBFE" transform="translate(377,217)"/>
<path d="M0 0 C0.66 0 1.32 0 2 0 C2.33 1.98 2.66 3.96 3 6 C2.67 5.34 2.34 4.68 2 4 C1.01 4.495 1.01 4.495 0 5 C-0.33 5.99 -0.66 6.98 -1 8 C-1.99 8.33 -2.98 8.66 -4 9 C-2.80100302 5.9168649 -1.52299523 2.93720508 0 0 Z " fill="#626DDE" transform="translate(237,209)"/>
<path d="M0 0 C5.75 3.625 5.75 3.625 8 7 C5.6875 7.3125 5.6875 7.3125 3 7 C1.18116991 4.6167054 0 3.04181663 0 0 Z " fill="#6469D8" transform="translate(569,144)"/>
<path d="M0 0 C3.3 1.65 6.6 3.3 10 5 C9.67 5.66 9.34 6.32 9 7 C5.56072421 5.7580393 2.74792181 4.44259716 0 2 C0 1.34 0 0.68 0 0 Z " fill="#E7EDFE" transform="translate(318,520)"/>
<path d="M0 0 C1.67542976 0.28604898 3.34385343 0.61781233 5 1 C3.3545622 2.68762851 1.68711423 4.3540349 0 6 C-0.33 6 -0.66 6 -1 6 C-1.042721 4.33388095 -1.04063832 2.66617115 -1 1 C-0.67 0.67 -0.34 0.34 0 0 Z " fill="#636DE6" transform="translate(571,498)"/>
<path d="M0 0 C0.66 0.33 1.32 0.66 2 1 C1.34 2.32 0.68 3.64 0 5 C-1.65 5 -3.3 5 -5 5 C-4.1875 3.0625 -4.1875 3.0625 -3 1 C-2.01 0.67 -1.02 0.34 0 0 Z " fill="#5667E4" transform="translate(371,313)"/>
<path d="M0 0 C3.0916909 2.52956528 3.90931332 5.22454612 5 9 C3.35 8.67 1.7 8.34 0 8 C0 5.36 0 2.72 0 0 Z " fill="#E4EDFA" transform="translate(548,255)"/>
<path d="M0 0 C0.66 0.33 1.32 0.66 2 1 C0.90716423 2.03295436 -0.19970579 3.05107835 -1.3125 4.0625 C-1.92738281 4.63097656 -2.54226563 5.19945312 -3.17578125 5.78515625 C-3.77777344 6.18605469 -4.37976563 6.58695313 -5 7 C-5.99 6.67 -6.98 6.34 -8 6 C-5.63404067 3.38499232 -3.13950774 1.61000397 0 0 Z " fill="#676FE3" transform="translate(275,163)"/>
<path d="M0 0 C1.65 0 3.3 0 5 0 C4.34 1.32 3.68 2.64 3 4 C3.99 4.33 4.98 4.66 6 5 C5.67 5.99 5.34 6.98 5 8 C4.67 7.01 4.34 6.02 4 5 C1.99983534 3.79117904 1.99983534 3.79117904 0 3 C0 2.01 0 1.02 0 0 Z " fill="#DDE2FA" transform="translate(582,152)"/>
<path d="M0 0 C0 0.99 0 1.98 0 3 C-3.4352048 5.29013653 -4.985331 5.17842973 -9 5 C-6.14693203 2.67527795 -3.45925163 1.2491742 0 0 Z " fill="#6D73DA" transform="translate(345,115)"/>
<path d="M0 0 C0 3 0 3 -1.3125 4.60546875 C-1.869375 5.12753906 -2.42625 5.64960938 -3 6.1875 C-3.556875 6.71730469 -4.11375 7.24710937 -4.6875 7.79296875 C-5.120625 8.19128906 -5.55375 8.58960938 -6 9 C-6.99 8.67 -7.98 8.34 -9 8 C-6.03 5.36 -3.06 2.72 0 0 Z " fill="#D5DBFD" transform="translate(585,491)"/>
<path d="M0 0 C0.66 0.99 1.32 1.98 2 3 C0.68 5.31 -0.64 7.62 -2 10 C-4 6.25 -4 6.25 -4 4 C-2.68 4 -1.36 4 0 4 C0 2.68 0 1.36 0 0 Z " fill="#666CDF" transform="translate(631,428)"/>
<path d="M0 0 C0.99 0 1.98 0 3 0 C3.66 3.3 4.32 6.6 5 10 C2.327664 6.43688534 1.22736029 4.15414253 0 0 Z " fill="#6B73E1" transform="translate(227,419)"/>
<path d="M0 0 C0.66 0.33 1.32 0.66 2 1 C1.19185349 2.33597652 0.37836819 3.668725 -0.4375 5 C-0.88996094 5.7425 -1.34242188 6.485 -1.80859375 7.25 C-2.20175781 7.8275 -2.59492188 8.405 -3 9 C-3.33 9 -3.66 9 -4 9 C-4.25 6.75 -4.25 6.75 -4 4 C-2 1.6875 -2 1.6875 0 0 Z " fill="#E1E6FD" transform="translate(370,422)"/>
<path d="M0 0 C2.97 0 5.94 0 9 0 C6.23776722 2.76223278 3.79293383 2.57856291 0 3 C0 2.01 0 1.02 0 0 Z " fill="#E5EDFD" transform="translate(407,228)"/>
<path d="M0 0 C0.66 0.33 1.32 0.66 2 1 C1.67 1.99 1.34 2.98 1 4 C2.32 4.33 3.64 4.66 5 5 C5 5.66 5 6.32 5 7 C2.36 6.34 -0.28 5.68 -3 5 C-2.67 4.34 -2.34 3.68 -2 3 C-1.34 3 -0.68 3 0 3 C0 2.01 0 1.02 0 0 Z " fill="#EBEFFD" transform="translate(507,105)"/>
<path d="M0 0 C0.66 0.33 1.32 0.66 2 1 C2 1.66 2 2.32 2 3 C-0.64 3.66 -3.28 4.32 -6 5 C-6.33 4.34 -6.66 3.68 -7 3 C-4.69631264 1.93347808 -2.35981813 0.93578995 0 0 Z " fill="#ECEFFE" transform="translate(529,529)"/>
<path d="M0 0 C0.99 0.33 1.98 0.66 3 1 C1.02 3.31 -0.96 5.62 -3 8 C-3.33 6.68 -3.66 5.36 -4 4 C-2.0625 1.75 -2.0625 1.75 0 0 Z " fill="#636AD9" transform="translate(605,467)"/>
<path d="M0 0 C1.32 1.32 2.64 2.64 4 4 C2.35 5.65 0.7 7.3 -1 9 C-0.67 6.03 -0.34 3.06 0 0 Z " fill="#676BE5" transform="translate(617,447)"/>
<path d="M0 0 C1.32 0.33 2.64 0.66 4 1 C3.67 2.32 3.34 3.64 3 5 C2.01 5 1.02 5 0 5 C0 3.35 0 1.7 0 0 Z " fill="#546AE5" transform="translate(368,354)"/>
<path d="M0 0 C0.66 0.66 1.32 1.32 2 2 C0.02 4.97 0.02 4.97 -2 8 C-2.66 7.67 -3.32 7.34 -4 7 C-3.6875 5.0625 -3.6875 5.0625 -3 3 C-2.01 2.67 -1.02 2.34 0 2 C0 1.34 0 0.68 0 0 Z " fill="#EAF4FE" transform="translate(364,314)"/>
<path d="M0 0 C3.29148243 1.13499394 3.9959869 1.99283376 5.75 5.125 C6.1625 6.07375 6.575 7.0225 7 8 C6.01 8 5.02 8 4 8 C3.67 6.35 3.34 4.7 3 3 C2.01 3 1.02 3 0 3 C0 2.01 0 1.02 0 0 Z " fill="#DEE6FE" transform="translate(532,231)"/>
<path d="M0 0 C3.33557632 2.9905167 5.15083921 5.93184627 7 10 C6.34 10 5.68 10 5 10 C1.98295115 6.8000997 0.50109958 4.38462134 0 0 Z " fill="#6C71D9" transform="translate(619,197)"/>
<path d="M0 0 C0.66 0.33 1.32 0.66 2 1 C0.35 2.98 -1.3 4.96 -3 7 C-3.99 6.34 -4.98 5.68 -6 5 C-4.60210322 2.20420645 -2.7371003 1.40192942 0 0 Z " fill="#ECF2FC" transform="translate(265,169)"/>
<path d="M0 0 C0.99 0.33 1.98 0.66 3 1 C2.01 1.495 2.01 1.495 1 2 C1 2.66 1 3.32 1 4 C1.99 4.33 2.98 4.66 4 5 C3.67 5.99 3.34 6.98 3 8 C0.9375 6.25 0.9375 6.25 -1 4 C-0.75 1.75 -0.75 1.75 0 0 Z " fill="#F0F2FC" transform="translate(589,156)"/>
<path d="M0 0 C2.0625 0.75 2.0625 0.75 4 2 C4.33 2.99 4.66 3.98 5 5 C3.33333333 5 1.66666667 5 0 5 C-0.66 3.68 -1.32 2.36 -2 1 C-1.34 0.67 -0.68 0.34 0 0 Z " fill="#FBFCEF" transform="translate(558,130)"/>
<path d="M0 0 C2.31 0.66 4.62 1.32 7 2 C6.67 2.66 6.34 3.32 6 4 C3.4375 4.625 3.4375 4.625 1 5 C0.67 3.35 0.34 1.7 0 0 Z " fill="#ECF1FC" transform="translate(357,538)"/>
<path d="M0 0 C2 2 2 2 2 5 C0.35 5.33 -1.3 5.66 -3 6 C-1.125 1.125 -1.125 1.125 0 0 Z " fill="#FBFEF0" transform="translate(614,466)"/>
<path d="M0 0 C1.41687119 4.25061356 0.19320039 6.71851625 -1 11 C-1.33 11 -1.66 11 -2 11 C-2.05399736 9.54207116 -2.09279177 8.08357288 -2.125 6.625 C-2.15980469 5.40683594 -2.15980469 5.40683594 -2.1953125 4.1640625 C-2 2 -2 2 0 0 Z " fill="#D7DEFC" transform="translate(212,269)"/>
<path d="M0 0 C1.25541557 3.76624671 0.37061958 5.37188934 -1 9 C-2.32 8.67 -3.64 8.34 -5 8 C-3.35 5.36 -1.7 2.72 0 0 Z " fill="#6B74DB" transform="translate(244,198)"/>
<path d="M0 0 C0.33 1.32 0.66 2.64 1 4 C-0.98 4.66 -2.96 5.32 -5 6 C-5 5.01 -5 4.02 -5 3 C-2.5 1.3125 -2.5 1.3125 0 0 Z " fill="#EBEEFD" transform="translate(559,512)"/>
<path d="M0 0 C1.65 1.65 3.3 3.3 5 5 C4.67 5.66 4.34 6.32 4 7 C3.01 7 2.02 7 1 7 C0.67 4.69 0.34 2.38 0 0 Z " fill="#E7EDFD" transform="translate(265,477)"/>
<path d="M0 0 C0.66 0 1.32 0 2 0 C2 0.66 2 1.32 2 2 C2.99 1.67 3.98 1.34 5 1 C5.33 2.98 5.66 4.96 6 7 C1.125 3.375 1.125 3.375 0 0 Z " fill="#666EDC" transform="translate(250,458)"/>
<path d="M0 0 C2.64 0.33 5.28 0.66 8 1 C6.515 2.485 6.515 2.485 5 4 C2.525 3.01 2.525 3.01 0 2 C0 1.34 0 0.68 0 0 Z " fill="#5E6AE4" transform="translate(317,420)"/>
<path d="M0 0 C-1.5625 1.5625 -1.5625 1.5625 -4 3 C-7.75 2.6875 -7.75 2.6875 -11 2 C-11 1.67 -11 1.34 -11 1 C-9.5437328 0.63743142 -8.08488815 0.28520207 -6.625 -0.0625 C-5.40683594 -0.35833984 -5.40683594 -0.35833984 -4.1640625 -0.66015625 C-2 -1 -2 -1 0 0 Z " fill="#6B74D9" transform="translate(477,406)"/>
<path d="M0 0 C2.6855594 2.6855594 3.06049974 5.37621328 4 9 C3.01 8.67 2.02 8.34 1 8 C-0.35439668 5.29120665 -0.06501451 2.99066732 0 0 Z " fill="#E7EEFE" transform="translate(560,280)"/>
<path d="M0 0 C0.66 0.33 1.32 0.66 2 1 C1.01 2.485 1.01 2.485 0 4 C-2.625 4.1875 -2.625 4.1875 -5 4 C-5 3.34 -5 2.68 -5 2 C-2.625 0.9375 -2.625 0.9375 0 0 Z " fill="#E6EAFD" transform="translate(336,230)"/>
<path d="M0 0 C0.99 0 1.98 0 3 0 C3.33 2.64 3.66 5.28 4 8 C1.84622436 5.37801226 0.59927826 3.35595828 0 0 Z " fill="#E8EFFE" transform="translate(636,224)"/>
<path d="M0 0 C2.475 0.495 2.475 0.495 5 1 C5 2.66666667 5 4.33333333 5 6 C3.68 5.67 2.36 5.34 1 5 C0.67 3.35 0.34 1.7 0 0 Z " fill="#F2F5F9" transform="translate(553,129)"/>
<path d="M0 0 C0.66 0.33 1.32 0.66 2 1 C-1.32307692 4.93846154 -1.32307692 4.93846154 -4.75 5.25 C-5.4925 5.1675 -6.235 5.085 -7 5 C-4.88437775 2.67281553 -2.94982021 1.14186589 0 0 Z " fill="#6B76D9" transform="translate(326,124)"/>
<path d="M0 0 C0 0.99 0 1.98 0 3 C-1.32 3.33 -2.64 3.66 -4 4 C-4.66 3.01 -5.32 2.02 -6 1 C-4 0 -4 0 0 0 Z " fill="#FAFDF2" transform="translate(507,105)"/>
</svg>
