<?xml version="1.0" encoding="UTF-8"?>
<svg version="1.1" xmlns="http://www.w3.org/2000/svg" width="180" height="180">
<path d="M0 0 C59.4 0 118.8 0 180 0 C180 59.4 180 118.8 180 180 C120.6 180 61.2 180 0 180 C0 120.6 0 61.2 0 0 Z " fill="#292929" transform="translate(0,0)"/>
<path d="M0 0 C31.68 0 63.36 0 96 0 C96 2.64 96 5.28 96 8 C93.36 8 90.72 8 88 8 C88 10.64 88 13.28 88 16 C85.36 16 82.72 16 80 16 C80 18.64 80 21.28 80 24 C77.36 24 74.72 24 72 24 C72 26.64 72 29.28 72 32 C69.36 32 66.72 32 64 32 C64 34.64 64 37.28 64 40 C71.92 40 79.84 40 88 40 C88 42.64 88 45.28 88 48 C85.36 48 82.72 48 80 48 C80 50.64 80 53.28 80 56 C77.36 56 74.72 56 72 56 C72 58.64 72 61.28 72 64 C69.36 64 66.72 64 64 64 C64 66.64 64 69.28 64 72 C61.36 72 58.72 72 56 72 C56 74.64 56 77.28 56 80 C53.36 80 50.72 80 48 80 C48 82.64 48 85.28 48 88 C45.36 88 42.72 88 40 88 C40 90.64 40 93.28 40 96 C37.36 96 34.72 96 32 96 C32 98.64 32 101.28 32 104 C29.36 104 26.72 104 24 104 C24 106.64 24 109.28 24 112 C21.36 112 18.72 112 16 112 C16 114.64 16 117.28 16 120 C13.36 120 10.72 120 8 120 C8 122.64 8 125.28 8 128 C5.36 128 2.72 128 0 128 C0 122.72 0 117.44 0 112 C2.64 112 5.28 112 8 112 C8 106.72 8 101.44 8 96 C10.64 96 13.28 96 16 96 C16 90.72 16 85.44 16 80 C0.49 80 -15.02 80 -31 80 C-31 74.72 -31 69.44 -31 64 C-28.69 64 -26.38 64 -24 64 C-24 58.72 -24 53.44 -24 48 C-21.36 48 -18.72 48 -16 48 C-16 42.72 -16 37.44 -16 32 C-13.36 32 -10.72 32 -8 32 C-8 26.72 -8 21.44 -8 16 C-5.36 16 -2.72 16 0 16 C0 10.72 0 5.44 0 0 Z " fill="#FFFFFF" transform="translate(53,18)"/>
<path d="M0 0 C18.48 0 36.96 0 56 0 C56 2.64 56 5.28 56 8 C53.36 8 50.72 8 48 8 C48 10.64 48 13.28 48 16 C45.36 16 42.72 16 40 16 C40 18.64 40 21.28 40 24 C37.36 24 34.72 24 32 24 C32 26.64 32 29.28 32 32 C29.36 32 26.72 32 24 32 C24 34.64 24 37.28 24 40 C21.36 40 18.72 40 16 40 C16 42.64 16 45.28 16 48 C5.44 48 -5.12 48 -16 48 C-16 42.72 -16 37.44 -16 32 C-13.36 32 -10.72 32 -8 32 C-8 26.72 -8 21.44 -8 16 C-5.36 16 -2.72 16 0 16 C0 10.72 0 5.44 0 0 Z " fill="#2F7F6F" transform="translate(61,34)"/>
<path d="M0 0 C5.28 0 10.56 0 16 0 C16 2.64 16 5.28 16 8 C13.36 8 10.72 8 8 8 C8 10.64 8 13.28 8 16 C5.36 16 2.72 16 0 16 C0 18.64 0 21.28 0 24 C-2.64 24 -5.28 24 -8 24 C-8 26.64 -8 29.28 -8 32 C-10.64 32 -13.28 32 -16 32 C-16 34.64 -16 37.28 -16 40 C-18.64 40 -21.28 40 -24 40 C-24 42.64 -24 45.28 -24 48 C-26.64 48 -29.28 48 -32 48 C-32 50.64 -32 53.28 -32 56 C-34.64 56 -37.28 56 -40 56 C-40 58.64 -40 61.28 -40 64 C-42.64 64 -45.28 64 -48 64 C-48 66.64 -48 69.28 -48 72 C-50.64 72 -53.28 72 -56 72 C-56 74.64 -56 77.28 -56 80 C-58.64 80 -61.28 80 -64 80 C-64 82.64 -64 85.28 -64 88 C-66.64 88 -69.28 88 -72 88 C-72 90.64 -72 93.28 -72 96 C-74.64 96 -77.28 96 -80 96 C-80 90.72 -80 85.44 -80 80 C-77.36 80 -74.72 80 -72 80 C-72 77.36 -72 74.72 -72 72 C-69.36 72 -66.72 72 -64 72 C-64 69.36 -64 66.72 -64 64 C-61.36 64 -58.72 64 -56 64 C-56 61.36 -56 58.72 -56 56 C-53.36 56 -50.72 56 -48 56 C-48 53.36 -48 50.72 -48 48 C-45.36 48 -42.72 48 -40 48 C-40 45.36 -40 42.72 -40 40 C-37.36 40 -34.72 40 -32 40 C-32 37.36 -32 34.72 -32 32 C-29.36 32 -26.72 32 -24 32 C-24 29.36 -24 26.72 -24 24 C-21.36 24 -18.72 24 -16 24 C-16 21.36 -16 18.72 -16 16 C-13.36 16 -10.72 16 -8 16 C-8 13.36 -8 10.72 -8 8 C-5.36 8 -2.72 8 0 8 C0 5.36 0 2.72 0 0 Z " fill="#000000" transform="translate(133,66)"/>
<path d="M0 0 C5.61 0 11.22 0 17 0 C17 2.64 17 5.28 17 8 C14.03 8 11.06 8 8 8 C8 10.64 8 13.28 8 16 C5.36 16 2.72 16 0 16 C0 18.64 0 21.28 0 24 C-2.64 24 -5.28 24 -8 24 C-8 26.64 -8 29.28 -8 32 C-13.28 32 -18.56 32 -24 32 C-24 29.36 -24 26.72 -24 24 C-21.36 24 -18.72 24 -16 24 C-16 21.36 -16 18.72 -16 16 C-13.36 16 -10.72 16 -8 16 C-8 13.36 -8 10.72 -8 8 C-5.36 8 -2.72 8 0 8 C0 5.36 0 2.72 0 0 Z " fill="#000000" transform="translate(141,26)"/>
<path d="M0 0 C7.92 0 15.84 0 24 0 C24 2.64 24 5.28 24 8 C21.36 8 18.72 8 16 8 C16 10.64 16 13.28 16 16 C13.36 16 10.72 16 8 16 C8 18.64 8 21.28 8 24 C5.36 24 2.72 24 0 24 C0 16.08 0 8.16 0 0 Z " fill="#CCFF00" transform="translate(85,74)"/>
<path d="M0 0 C13.2 0 26.4 0 40 0 C40 2.64 40 5.28 40 8 C26.8 8 13.6 8 0 8 C0 5.36 0 2.72 0 0 Z " fill="#000000" transform="translate(29,98)"/>
<path d="M0 0 C5.28 0 10.56 0 16 0 C16 2.64 16 5.28 16 8 C18.64 8 21.28 8 24 8 C24 10.64 24 13.28 24 16 C16.08 16 8.16 16 0 16 C0 10.72 0 5.44 0 0 Z " fill="#CCFF00" transform="translate(45,66)"/>
<path d="M0 0 C2.64 0 5.28 0 8 0 C8 2.64 8 5.28 8 8 C5.36 8 2.72 8 0 8 C0 5.36 0 2.72 0 0 Z " fill="#FFFFFF" transform="translate(45,146)"/>
<path d="M0 0 C2.64 0 5.28 0 8 0 C8 2.64 8 5.28 8 8 C5.36 8 2.72 8 0 8 C0 5.36 0 2.72 0 0 Z " fill="#2F7F6F" transform="translate(101,74)"/>
<path d="M0 0 C2.64 0 5.28 0 8 0 C8 2.64 8 5.28 8 8 C5.36 8 2.72 8 0 8 C0 5.36 0 2.72 0 0 Z " fill="#2F7F6F" transform="translate(85,74)"/>
<path d="M0 0 C2.64 0 5.28 0 8 0 C8 2.64 8 5.28 8 8 C5.36 8 2.72 8 0 8 C0 5.36 0 2.72 0 0 Z " fill="#CCFF00" transform="translate(77,74)"/>
<path d="M0 0 C2.64 0 5.28 0 8 0 C8 2.64 8 5.28 8 8 C5.36 8 2.72 8 0 8 C0 5.36 0 2.72 0 0 Z " fill="#CCFF00" transform="translate(61,74)"/>
<path d="M0 0 C2.64 0 5.28 0 8 0 C8 2.64 8 5.28 8 8 C5.36 8 2.72 8 0 8 C0 5.36 0 2.72 0 0 Z " fill="#2F7F6F" transform="translate(53,74)"/>
<path d="M0 0 C2.64 0 5.28 0 8 0 C8 2.64 8 5.28 8 8 C5.36 8 2.72 8 0 8 C0 5.36 0 2.72 0 0 Z " fill="#CCFF00" transform="translate(45,74)"/>
<path d="M0 0 C2.64 0 5.28 0 8 0 C8 2.64 8 5.28 8 8 C5.36 8 2.72 8 0 8 C0 5.36 0 2.72 0 0 Z " fill="#CCFF00" transform="translate(85,66)"/>
<path d="M0 0 C2.64 0 5.28 0 8 0 C8 2.64 8 5.28 8 8 C5.36 8 2.72 8 0 8 C0 5.36 0 2.72 0 0 Z " fill="#CCFF00" transform="translate(69,66)"/>
<path d="M0 0 C2.64 0 5.28 0 8 0 C8 2.64 8 5.28 8 8 C5.36 8 2.72 8 0 8 C0 5.36 0 2.72 0 0 Z " fill="#2F7F6F" transform="translate(45,66)"/>
</svg>
