<?xml version="1.0" encoding="UTF-8"?>
<svg version="1.1" xmlns="http://www.w3.org/2000/svg" width="700" height="700">
<path d="M0 0 C231 0 462 0 700 0 C700 231 700 462 700 700 C469 700 238 700 0 700 C0 469 0 238 0 0 Z " fill="#0274B3" transform="translate(0,0)"/>
<path d="M0 0 C2.3959796 0.00314116 4.79069717 -0.02030815 7.18652344 -0.0456543 C21.28248298 -0.10534878 35.01877863 1.41698145 48.23339844 6.62817383 C49.03132812 6.9344873 49.82925781 7.24080078 50.65136719 7.55639648 C61.3128243 11.7613135 69.67484855 17.80057006 78.29589844 25.31567383 C78.93398438 25.85708008 79.57207031 26.39848633 80.22949219 26.95629883 C98.96237678 44.08845195 105.11198164 72.2187538 108.29589844 96.31567383 C108.43671656 97.36543585 108.43671656 97.36543585 108.58037949 98.43640518 C111.05467837 117.89406527 110.55655068 137.52338587 110.49868631 157.09550619 C110.48603353 162.10957378 110.48499716 167.12364474 110.4826355 172.13772583 C110.47646289 181.59662064 110.46011029 191.05546824 110.43993652 200.51434243 C110.4132247 213.32154288 110.40257072 226.12875658 110.39093208 238.93597794 C110.37222577 259.06257847 110.33235232 279.18907947 110.29589844 299.31567383 C80.26589844 299.31567383 50.23589844 299.31567383 19.29589844 299.31567383 C19.25851562 287.62516602 19.22113281 275.9346582 19.18261719 263.88989258 C19.15231972 256.45693829 19.1212798 249.02399921 19.08691406 241.59106445 C19.0325768 229.80893375 18.98115784 218.02684519 18.94946289 206.24462891 C18.92635822 197.66094981 18.89282329 189.0773828 18.84719688 180.49379283 C18.82343131 175.95646954 18.80459417 171.4192561 18.79828453 166.88187218 C19.89976191 126.73756277 19.89976191 126.73756277 3.58886719 91.31567383 C-3.48364913 84.4069421 -13.87158477 80.56908921 -23.70410156 80.31567383 C-24.82558594 80.26540039 -25.94707031 80.21512695 -27.10253906 80.16333008 C-38.45677381 79.8754438 -48.89766768 81.31257384 -58.70410156 87.31567383 C-59.70376953 87.9112207 -59.70376953 87.9112207 -60.72363281 88.51879883 C-73.04943939 96.72029154 -78.14951506 112.49846438 -81.12597656 126.30786133 C-82.9651623 137.44945584 -82.86376057 148.87203757 -82.90942383 160.13354492 C-82.91903192 161.66268663 -82.92904356 163.19182585 -82.93942261 164.72096252 C-82.96616091 168.82535833 -82.9873361 172.92976527 -83.00742459 177.03419828 C-83.02947882 181.34098491 -83.05677126 185.64773847 -83.08348083 189.95449829 C-83.13314761 198.08906153 -83.17818155 206.22364339 -83.2215032 214.35824263 C-83.28039452 225.36530048 -83.34653952 236.37231466 -83.41225338 247.3793335 C-83.51542046 264.6914174 -83.60897995 282.00353951 -83.70410156 299.31567383 C-113.40410156 299.31567383 -143.10410156 299.31567383 -173.70410156 299.31567383 C-173.70410156 202.95567383 -173.70410156 106.59567383 -173.70410156 7.31567383 C-144.99410156 7.31567383 -116.28410156 7.31567383 -86.70410156 7.31567383 C-86.37410156 20.18567383 -86.04410156 33.05567383 -85.70410156 46.31567383 C-82.73410156 42.02567383 -79.76410156 37.73567383 -76.70410156 33.31567383 C-64.68678369 20.1538495 -51.31600012 11.56005314 -34.76660156 5.12817383 C-34.13455811 4.877854 -33.50251465 4.62753418 -32.85131836 4.36962891 C-22.09438792 0.33458599 -11.3488115 -0.03097634 0 0 Z " fill="#FEFEFE" transform="translate(455.7041015625,265.684326171875)"/>
<path d="M0 0 C29.7 0 59.4 0 90 0 C90 96.36 90 192.72 90 292 C60.3 292 30.6 292 0 292 C0 195.64 0 99.28 0 0 Z " fill="#FDFEFE" transform="translate(134,273)"/>
<path d="M0 0 C10.49299971 8.29305766 19.00543564 19.41289902 20.7890625 32.98828125 C21.80191188 47.44951963 20.9353461 59.47553809 13 72 C12.65453125 72.59296875 12.3090625 73.1859375 11.953125 73.796875 C4.90154355 84.93632975 -7.66428517 91.57240139 -19.9375 95.375 C-35.10519098 98.517566 -49.03832721 94.80375942 -62 87 C-73.35080938 78.62420114 -81.00496999 66.86934241 -84 53 C-85.49127691 35.44407115 -82.70932536 20.931942 -71.37890625 7.0078125 C-52.45862951 -13.40975233 -22.55241463 -15.29760173 0 0 Z " fill="#FDFEFD" transform="translate(211,137)"/>
<path d="M0 0 C3.04664193 3.04664193 3.12659318 5.69157722 3.14704514 9.80612755 C3.15436968 10.80178494 3.16169422 11.79744233 3.16924071 12.82327116 C3.17226518 13.9200423 3.17528965 15.01681344 3.17840576 16.14682007 C3.18546044 17.30966794 3.19251511 18.4725158 3.19978356 19.67060149 C3.21833439 22.90361444 3.23241783 26.13661152 3.24458575 29.3696537 C3.25874399 32.85441002 3.27853827 36.3391351 3.29753113 39.8238678 C3.33792985 47.44566249 3.37083436 55.06747849 3.40211773 62.68931532 C3.42165457 67.4468187 3.44263603 72.20431502 3.46387482 76.96181107 C3.52237879 90.12969034 3.5789793 103.29757473 3.62871933 116.46549034 C3.63190651 117.30839637 3.63509368 118.15130241 3.63837744 119.01975105 C3.64157067 119.86468963 3.64476389 120.70962821 3.64805388 121.58017099 C3.65452623 123.29237963 3.66100176 125.00458826 3.66748047 126.71679688 C3.67069251 127.56611403 3.67390456 128.41543118 3.67721394 129.29048522 C3.72964086 143.0574479 3.79560769 156.82430984 3.86739931 170.59118383 C3.94088308 184.71981035 4.00307419 198.84844974 4.05390286 212.97717631 C4.08271439 220.91224243 4.11641369 228.84722152 4.16255951 236.78220749 C4.2017936 243.53793175 4.23073802 250.29360094 4.24618712 257.0494232 C4.25438126 260.49716284 4.26748336 263.94470125 4.29369926 267.39235497 C4.31954685 271.12808533 4.32691844 274.86340446 4.32952881 278.59921265 C4.34147616 279.69152234 4.35342351 280.78383204 4.36573291 281.90924203 C4.33710955 291.13145996 4.33710955 291.13145996 1 295 C0.67 295 0.34 295 0 295 C0 197.65 0 100.3 0 0 Z " fill="#076DA5" transform="translate(225,272)"/>
<path d="M0 0 C4.87130638 0.71604949 6.97505954 3.74261188 10.0390625 7.34765625 C21.7120447 23.13641106 22.31964322 44.96349676 22.22705078 63.82763672 C22.22648514 65.46514885 22.2268062 67.1026615 22.22793579 68.74017334 C22.22850434 73.14007606 22.21683159 77.5398674 22.20278788 81.93974447 C22.19019663 86.55480462 22.18910345 91.16986795 22.18673706 95.78494263 C22.18054677 104.50391188 22.16416949 113.22283035 22.14403808 121.94177735 C22.11739864 133.73805422 22.10668661 145.5343452 22.09503365 157.33064461 C22.07628685 175.88713436 22.03642494 194.44351701 22 213 C51.7 213 81.4 213 112 213 C111.67 213.66 111.34 214.32 111 215 C99.4476704 215.0462914 87.89536278 215.08185294 76.3429594 215.10362434 C70.97901324 215.11407224 65.61513041 215.12824982 60.2512207 215.15087891 C55.07708423 215.17257138 49.90300877 215.18456104 44.72883034 215.18975449 C42.75241955 215.19345671 40.77601219 215.200686 38.7996273 215.21146011 C36.03651015 215.22592722 33.27364683 215.22797995 30.51049805 215.22705078 C29.68906815 215.23424133 28.86763824 215.24143188 28.02131653 215.24884033 C24.15086123 215.23470835 22.29703963 215.19802642 19 213 C18.62361908 210.07558823 18.62361908 210.07558823 18.62145996 206.24798584 C18.61692983 205.5456168 18.6123997 204.84324776 18.6077323 204.11959481 C18.59605705 201.75369791 18.60577599 199.38836089 18.61523438 197.02246094 C18.61113121 195.33061354 18.60567185 193.63876896 18.59895325 191.94692993 C18.58720032 188.29536243 18.58475412 184.64394619 18.58930969 180.99236298 C18.59611032 175.20822934 18.58026297 169.42429488 18.56091309 163.64019775 C18.52299044 151.343476 18.51026891 139.04677123 18.5 126.75 C18.48892108 113.51582611 18.47338815 100.28174394 18.42928743 87.04763246 C18.41101769 81.30949627 18.40700873 75.57158706 18.41422272 69.83342886 C18.41575601 66.24249608 18.40488778 62.65167433 18.39084435 59.06077194 C18.38687636 57.40894619 18.38790662 55.75709872 18.39461708 54.10528183 C18.44162613 41.55806223 17.62143106 29.47708842 12 18 C9 11.46575342 9 11.46575342 9 8 C8.01 7.67 7.02 7.34 6 7 C6 6.34 6 5.68 6 5 C5.38125 4.690625 4.7625 4.38125 4.125 4.0625 C2.75 3.375 1.375 2.6875 0 2 C0 1.34 0 0.68 0 0 Z " fill="#267FAB" transform="translate(453,353)"/>
<path d="M0 0 C0.66 0 1.32 0 2 0 C2 97.02 2 194.04 2 294 C31.7 294 61.4 294 92 294 C91.67 294.66 91.34 295.32 91 296 C89.97349335 295.99777939 88.94698669 295.99555878 87.88937378 295.99327087 C78.20802139 295.97298521 68.52667332 295.9580017 58.84530449 295.94818783 C53.8682148 295.9429728 48.8911423 295.93590019 43.9140625 295.92456055 C39.10949663 295.91368266 34.30494726 295.90771276 29.50037003 295.90512276 C27.66879135 295.90327735 25.83721357 295.89967375 24.00564194 295.89426994 C21.43717253 295.88699449 18.86877105 295.88601181 16.30029297 295.88647461 C15.16848351 295.8810817 15.16848351 295.8810817 14.0138092 295.87557983 C10.77866448 295.88187349 7.79266542 296.03861643 4.60623169 296.63209534 C3.74617523 296.75350388 2.88611877 296.87491241 2 297 C0 295 0 295 -0.24839699 292.86005437 C-0.24763755 291.96467384 -0.24687811 291.0692933 -0.24609566 290.14678001 C-0.25007775 289.11519622 -0.25405985 288.08361243 -0.25816262 287.02076852 C-0.25233693 285.87876446 -0.24651125 284.73676039 -0.24050903 283.56015015 C-0.24221788 282.35379335 -0.24392673 281.14743655 -0.24568737 279.90452349 C-0.24842089 276.54549168 -0.24213694 273.18669077 -0.23213124 269.82768679 C-0.22352044 266.2094195 -0.22641522 262.59115977 -0.22793579 258.97288513 C-0.22898615 252.70048699 -0.22269384 246.42813035 -0.21146011 240.15574265 C-0.19522845 231.08685074 -0.18999951 222.01797896 -0.18748413 212.9490741 C-0.18310335 198.23654583 -0.16978389 183.52403969 -0.15087891 168.81152344 C-0.13253 154.51692821 -0.11836866 140.22233899 -0.10986328 125.92773438 C-0.10933783 125.04709613 -0.10881239 124.16645788 -0.10827102 123.25913362 C-0.105661 118.84137391 -0.10313357 114.42361415 -0.10064721 110.00585437 C-0.0799028 73.33722061 -0.04466687 36.66861203 0 0 Z " fill="#2C77AD" transform="translate(280,272)"/>
<path d="M0 0 C0.33 0 0.66 0 1 0 C1 96.03 1 192.06 1 291 C29.38 290.67 57.76 290.34 87 290 C88.33910386 287.32179229 88.14008245 285.25493116 88.15821838 282.25473022 C88.1680072 281.03192856 88.17779602 279.80912689 88.18788147 278.54927063 C88.19378602 277.18698159 88.19959644 275.82469214 88.20532227 274.46240234 C88.21489835 273.03355118 88.22490827 271.60470286 88.23532104 270.17585754 C88.26240545 266.28975447 88.28339583 262.40363921 88.30332303 258.51749372 C88.32516082 254.45887488 88.35256028 250.40029376 88.37937927 246.34170532 C88.42933607 238.65298604 88.4742638 230.96424586 88.51740164 223.27548563 C88.56674852 214.52346483 88.62167608 205.77148186 88.67708123 197.01949763 C88.79094712 179.01303354 88.8977761 161.00653376 89 143 C89.33 143 89.66 143 90 143 C90 192.17 90 241.34 90 292 C60.3 292 30.6 292 0 292 C0 195.64 0 99.28 0 0 Z " fill="#E4FDFE" transform="translate(282,273)"/>
<path d="M0 0 C0.99 0.33 1.98 0.66 3 1 C4.79124727 11.31803639 5.27861493 21.29597875 5.22705078 31.73583984 C5.22648513 33.36349989 5.22680623 34.99116044 5.22793579 36.61882019 C5.22850429 40.99186455 5.21683236 45.36479683 5.20278788 49.73781538 C5.19019579 54.32484827 5.18910339 58.91188437 5.18673706 63.49893188 C5.18054701 72.16477734 5.16417006 80.83057169 5.14403808 89.49639475 C5.11739766 101.22092075 5.10668641 112.94546094 5.09503365 124.67000961 C5.07628741 143.11337794 5.03642534 161.55663849 5 180 C33.05 180 61.1 180 90 180 C90 179.34 90 178.68 90 178 C90.66 178 91.32 178 92 178 C92.33 119.26 92.66 60.52 93 0 C93.33 0 93.66 0 94 0 C94 59.73 94 119.46 94 181 C63.97 181 33.94 181 3 181 C2.95101563 169.2746875 2.90203125 157.549375 2.8515625 145.46875 C2.8161598 138.02212821 2.78026927 130.57551402 2.7421875 123.12890625 C2.68188803 111.32016766 2.62352926 99.51144324 2.578125 87.70263672 C2.54504039 79.10033168 2.50512004 70.49808922 2.45720994 61.89585352 C2.43210754 57.34690821 2.41027961 52.79800354 2.39665604 48.24900818 C2.38368639 43.95458618 2.36147686 39.66030474 2.33261681 35.36596107 C2.32365598 33.80206652 2.31787825 32.23814941 2.31578636 30.67423058 C2.29945187 20.30374084 1.50660087 10.26210774 0 0 Z " fill="#CBECF2" transform="translate(472,384)"/>
<path d="M0 0 C2.04400568 3.06600852 2.37650861 4.3896653 2.81640625 7.9375 C2.94080078 8.91589844 3.06519531 9.89429688 3.19335938 10.90234375 C3.37608398 12.43568359 3.37608398 12.43568359 3.5625 14 C3.75102539 15.48693359 3.75102539 15.48693359 3.94335938 17.00390625 C4.3165728 20.00133765 4.67616912 22.99676188 5 26 C5.08238104 26.69143254 5.16476208 27.38286509 5.24963951 28.09525013 C6.20942775 37.07126049 6.13339469 46.03433197 6.11352539 55.04760742 C6.11324287 56.85216266 6.11340252 58.65671802 6.1139679 60.46127319 C6.11425333 65.33031144 6.10839772 70.19932475 6.10139394 75.06835723 C6.09511806 80.16791007 6.09455326 85.26746355 6.09336853 90.36701965 C6.09026766 100.01042669 6.08207111 109.65382232 6.07201904 119.29722434 C6.06081918 130.28154942 6.05533771 141.26587507 6.05032361 152.25020444 C6.0398874 174.83347594 6.02231216 197.41673733 6 220 C5.34 220 4.68 220 4 220 C3.99761165 219.08967451 3.99522329 218.17934902 3.99276257 217.24143791 C3.93326894 194.9491538 3.85750469 172.65697472 3.76428509 150.36480522 C3.71958259 139.58387107 3.68011137 128.80296807 3.65356445 118.02197266 C3.63037499 108.61013898 3.59675022 99.19840608 3.55129844 89.78665268 C3.5276442 84.81694057 3.50873574 79.8473265 3.50238609 74.87755966 C3.47294912 54.37781436 3.08750915 34.21254001 0.63825989 13.84109497 C0.08127543 9.17918346 -0.13458664 4.69135065 0 0 Z " fill="#166AA1" transform="translate(562,346)"/>
<path d="M0 0 C0.66202927 -0.00095673 1.32405853 -0.00191345 2.00614929 -0.00289917 C3.4021311 -0.00357705 4.79811612 -0.00175023 6.1940918 0.00244141 C8.30720284 0.00776959 10.42009885 0.00249635 12.53320312 -0.00390625 C19.11205574 -0.00692177 25.50174061 0.15478762 32.01171875 1.1328125 C33.65611288 1.21325768 35.30286825 1.26359932 36.94921875 1.2578125 C38.07650391 1.26167969 38.07650391 1.26167969 39.2265625 1.265625 C41.03580727 1.32628912 41.03580727 1.32628912 42.01171875 0.1328125 C43.6778899 0.09217418 45.3455997 0.0900915 47.01171875 0.1328125 C47.50671875 1.6178125 47.50671875 1.6178125 48.01171875 3.1328125 C49.99156356 3.85714597 51.99755313 4.51025222 54.01171875 5.1328125 C55.29314146 5.75737147 56.56362291 6.4047179 57.82421875 7.0703125 C61.45643328 8.95627004 65.10051763 10.20413395 69.03125 11.32421875 C71.29053451 12.24664852 72.48534304 13.24049183 74.01171875 15.1328125 C74.01171875 15.7928125 74.01171875 16.4528125 74.01171875 17.1328125 C70.588974 15.79800328 67.26878824 14.32997663 63.94921875 12.7578125 C47.38280634 5.25770568 30.73967704 2.59597307 12.69018555 2.74169922 C10.31436444 2.75787961 7.94022561 2.7416839 5.56445312 2.72265625 C-7.6008696 2.7050264 -19.44085864 5.05634571 -31.98828125 9.1328125 C-31.98828125 8.4728125 -31.98828125 7.8128125 -31.98828125 7.1328125 C-31.01890625 6.6584375 -30.04953125 6.1840625 -29.05078125 5.6953125 C-26.18350688 4.43087303 -26.18350688 4.43087303 -24.98828125 3.1328125 C-22.91210721 2.757459 -20.82672014 2.4324988 -18.73828125 2.1328125 C-14.20565452 1.49578513 -14.20565452 1.49578513 -9.71899414 0.60986328 C-6.43997096 0.03702365 -3.32906445 0.00307373 0 0 Z " fill="#337AA5" transform="translate(447.98828125,263.8671875)"/>
<path d="M0 0 C2.07618582 3.11427872 3.53782677 6.2365697 5.125 9.625 C11.680614 22.98558897 21.75384385 31.17171791 35.75 36.2890625 C45.12909277 39.25259528 56.3813314 38.83212735 66 37 C66 37.66 66 38.32 66 39 C65.10796875 39.10957031 64.2159375 39.21914062 63.296875 39.33203125 C62.12640625 39.49058594 60.9559375 39.64914063 59.75 39.8125 C58.58984375 39.96332031 57.4296875 40.11414063 56.234375 40.26953125 C53.01605334 40.99637443 51.41668345 41.81661025 49 44 C49 43.01 49 42.02 49 41 C48.20335937 40.86722656 47.40671875 40.73445313 46.5859375 40.59765625 C44.4609375 40.24348958 42.3359375 39.88932292 40.2109375 39.53515625 C39.15132812 39.35855469 38.09171875 39.18195313 37 39 C35 38.66666667 33 38.33333333 31 38 C31 37.34 31 36.68 31 36 C29.906875 35.855625 28.81375 35.71125 27.6875 35.5625 C24 35 24 35 21 34 C20.67 33.01 20.34 32.02 20 31 C19.01 30.67 18.02 30.34 17 30 C17 29.34 17 28.68 17 28 C16.443125 27.79375 15.88625 27.5875 15.3125 27.375 C12.02987629 25.42316968 10.29326754 23.05769006 8 20 C8 19.34 8 18.68 8 18 C7.01 17.67 6.02 17.34 5 17 C5 16.01 5 15.02 5 14 C4.01 13.67 3.02 13.34 2 13 C0.34950283 8.56971812 -0.22973141 4.70949382 0 0 Z " fill="#1B6E9C" transform="translate(128,194)"/>
<path d="M0 0 C2.09715785 3.14573677 2.52004559 5.01456251 3.125 8.6875 C3.29257813 9.68136719 3.46015625 10.67523438 3.6328125 11.69921875 C3.75398437 12.45847656 3.87515625 13.21773437 4 14 C5.32 14 6.64 14 8 14 C7.03578548 19.97813 5.3667134 25.9499299 2 31 C1.34 31 0.68 31 0 31 C-0.12375 32.11375 -0.2475 33.2275 -0.375 34.375 C-1 38 -1 38 -3 40 C-3.28875 40.825 -3.5775 41.65 -3.875 42.5 C-5 45 -5 45 -7.125 46.3125 C-8.053125 46.6528125 -8.053125 46.6528125 -9 47 C-8.04224488 45.06320632 -7.07668202 43.13939364 -6.03515625 41.24609375 C-0.82990501 31.56725308 0.44738475 22.19434115 0.1875 11.3125 C0.17396484 10.21744141 0.16042969 9.12238281 0.14648438 7.99414062 C0.11156837 5.32888586 0.06253717 2.66472496 0 0 Z " fill="#1374AD" transform="translate(231,165)"/>
<path d="M0 0 C4.87130638 0.71604949 6.97505954 3.74261188 10.0390625 7.34765625 C20.23693853 21.14119774 21.20849694 38.5055757 21 55 C20.34 55 19.68 55 19 55 C18.96261719 54.00742187 18.92523438 53.01484375 18.88671875 51.9921875 C18.3557639 40.28071626 17.2239334 28.6655307 12 18 C9 11.46575342 9 11.46575342 9 8 C8.01 7.67 7.02 7.34 6 7 C6 6.34 6 5.68 6 5 C5.38125 4.690625 4.7625 4.38125 4.125 4.0625 C2.75 3.375 1.375 2.6875 0 2 C0 1.34 0 0.68 0 0 Z " fill="#1F75A4" transform="translate(453,353)"/>
<path d="M0 0 C0 0.66 0 1.32 0 2 C1.35544922 2.07347656 1.35544922 2.07347656 2.73828125 2.1484375 C4.50751953 2.26058594 4.50751953 2.26058594 6.3125 2.375 C7.48425781 2.44460937 8.65601563 2.51421875 9.86328125 2.5859375 C13 3 13 3 16 5 C17.98799818 5.70164642 19.98698517 6.37372872 22 7 C22 7.66 22 8.32 22 9 C22.9075 9.226875 23.815 9.45375 24.75 9.6875 C28.44888324 11.18127977 29.77905658 12.75400577 32 16 C28.48520298 16 27.81821943 15.34978233 25.0625 13.3125 C11.5473619 3.99323811 -2.89840852 2.33092488 -18.875 5 C-20.58558619 5.32157234 -22.29495264 5.65024669 -24 6 C-23.67 5.01 -23.34 4.02 -23 3 C-7.25512528 -0.44419134 -7.25512528 -0.44419134 0 0 Z " fill="#126D9E" transform="translate(184,124)"/>
<path d="M0 0 C-0.50789063 0.46148437 -1.01578125 0.92296875 -1.5390625 1.3984375 C-13.29178669 12.53491398 -19.08167047 27.06853838 -19.95703125 43.15625 C-19.97121094 43.7646875 -19.98539062 44.373125 -20 45 C-20.33 45 -20.66 45 -21 45 C-21.144375 43.9275 -21.28875 42.855 -21.4375 41.75 C-21.84683883 38.24908859 -21.84683883 38.24908859 -22.6875 36 C-23.19200401 32.77117434 -21.99783257 30.05219375 -21 27 C-20.34 27 -19.68 27 -19 27 C-19.04125 26.28457031 -19.0825 25.56914062 -19.125 24.83203125 C-18.98639687 21.69180414 -18.22896491 19.56788652 -17 16.6875 C-16.62875 15.80449219 -16.2575 14.92148438 -15.875 14.01171875 C-15.58625 13.34785156 -15.2975 12.68398437 -15 12 C-14.34 12 -13.68 12 -13 12 C-13 10.68 -13 9.36 -13 8 C-11.33720673 6.9935725 -9.67016516 5.99414593 -8 5 C-7.32650839 3.33607955 -6.6590841 1.66967972 -6 0 C-3.40713222 -1.13437965 -2.55267344 -1.27633672 0 0 Z " fill="#166E9E" transform="translate(146,139)"/>
<path d="M0 0 C2 2 2 2 2.22705078 4.98095703 C2.21657715 6.22731934 2.20610352 7.47368164 2.1953125 8.7578125 C2.1924826 9.42086395 2.18965271 10.08391541 2.18673706 10.76705933 C2.17553435 12.88655583 2.15043051 15.00563104 2.125 17.125 C2.11497028 18.56119182 2.10584441 19.99739025 2.09765625 21.43359375 C2.075595 24.95586628 2.04106494 28.47789203 2 32 C2.99 32 3.98 32 5 32 C5.33 30.68 5.66 29.36 6 28 C6.99 28 7.98 28 9 28 C7.53400783 31.08779026 5.82973607 33.90467205 3.9375 36.75 C3.41027344 37.54921875 2.88304687 38.3484375 2.33984375 39.171875 C1.89769531 39.77515625 1.45554687 40.3784375 1 41 C0.67 41 0.34 41 0 41 C0 27.47 0 13.94 0 0 Z " fill="#116C9D" transform="translate(369,272)"/>
<path d="M0 0 C-1.27707557 2.56745401 -2.57265843 5.12499583 -3.875 7.6796875 C-4.58344302 9.07806944 -5.29177315 10.47650857 -6 11.875 C-6.35578125 12.56980469 -6.7115625 13.26460938 -7.078125 13.98046875 C-13.06580368 25.84411569 -14.27083167 37.85578142 -15 51 C-15.33 51 -15.66 51 -16 51 C-16.47164366 38.82897322 -15.76239127 28.61959393 -12 17 C-11.65299155 15.67016015 -11.31240119 14.33839246 -11 13 C-10.34 13 -9.68 13 -9 13 C-9.0825 12.13375 -9.165 11.2675 -9.25 10.375 C-8.94096673 6.20305081 -7.56635985 4.2456904 -5 1 C-3 0 -3 0 0 0 Z " fill="#DDF4F9" transform="translate(388,359)"/>
<path d="M0 0 C0.33 0 0.66 0 1 0 C1.33 12.87 1.66 25.74 2 39 C3.65 36.36 5.3 33.72 7 31 C7.33 31 7.66 31 8 31 C8.02698189 32.62490954 8.04638757 34.24994633 8.0625 35.875 C8.07410156 36.77992188 8.08570313 37.68484375 8.09765625 38.6171875 C8 41 8 41 7 43 C6.34 43 5.68 43 5 43 C4.67 44.32 4.34 45.64 4 47 C3.01 47 2.02 47 1 47 C1.66 45.02 2.32 43.04 3 41 C1.515 41.495 1.515 41.495 0 42 C0 28.14 0 14.28 0 0 Z " fill="#C2DEEF" transform="translate(368,273)"/>
<path d="M0 0 C1.32 0.66 2.64 1.32 4 2 C3.11699219 2.47308594 2.23398437 2.94617188 1.32421875 3.43359375 C-9.78427197 9.50648417 -19.28971585 16.75461306 -28 26 C-28 22.30581799 -26.71820705 20.22163822 -25 17 C-24.34 17 -23.68 17 -23 17 C-22.93941406 16.38640625 -22.87882812 15.7728125 -22.81640625 15.140625 C-22 13 -22 13 -19.71484375 11.734375 C-18.79832031 11.40953125 -17.88179688 11.0846875 -16.9375 10.75 C-16.01839844 10.41484375 -15.09929687 10.0796875 -14.15234375 9.734375 C-13.44207031 9.49203125 -12.73179687 9.2496875 -12 9 C-12 8.34 -12 7.68 -12 7 C-9.36 6.34 -6.72 5.68 -4 5 C-4.99 3.68 -5.98 2.36 -7 1 C-4.03 1.495 -4.03 1.495 -1 2 C-0.67 1.34 -0.34 0.68 0 0 Z " fill="#186D9A" transform="translate(408,273)"/>
<path d="M0 0 C0.99 0.33 1.98 0.66 3 1 C5.56944236 1.11964338 8.11387381 1.18525624 10.68432617 1.20532227 C11.85541176 1.22017166 11.85541176 1.22017166 13.05015564 1.23532104 C15.63106248 1.26691177 18.21198773 1.29168388 20.79296875 1.31640625 C22.58230569 1.33697787 24.3716378 1.3579744 26.16096497 1.37937927 C30.87092166 1.43457842 35.58092206 1.48399723 40.29095459 1.53222656 C45.09700409 1.58245731 49.90299012 1.63813517 54.70898438 1.69335938 C64.13926869 1.80091458 73.56960812 1.90236544 83 2 C83 1.34 83 0.68 83 0 C83.66 0 84.32 0 85 0 C84.67 1.32 84.34 2.64 84 4 C42.915 3.505 42.915 3.505 1 3 C0.67 2.01 0.34 1.02 0 0 Z " fill="#FDF9EE" transform="translate(285,560)"/>
<path d="M0 0 C0.68100266 0.00141495 1.36200531 0.0028299 2.06364441 0.00428772 C4.22346522 0.00985327 6.38317964 0.02239922 8.54296875 0.03515625 C10.01367037 0.04017571 11.48437363 0.04473784 12.95507812 0.04882812 C16.54690915 0.05981137 20.13867855 0.07705203 23.73046875 0.09765625 C23.73046875 0.42765625 23.73046875 0.75765625 23.73046875 1.09765625 C23.10293701 1.11223877 22.47540527 1.12682129 21.82885742 1.1418457 C-3.78525843 1.65710094 -3.78525843 1.65710094 -28.3359375 8.328125 C-30.26953125 9.09765625 -30.26953125 9.09765625 -32.26953125 9.09765625 C-32.26953125 8.43765625 -32.26953125 7.77765625 -32.26953125 7.09765625 C-31.30015625 6.62328125 -30.33078125 6.14890625 -29.33203125 5.66015625 C-26.46475688 4.39571678 -26.46475688 4.39571678 -25.26953125 3.09765625 C-23.19335721 2.72230275 -21.10797014 2.39734255 -19.01953125 2.09765625 C-14.49485181 1.4632489 -14.49485181 1.4632489 -10.01782227 0.57250977 C-6.63929246 -0.01123728 -3.42878282 -0.01411022 0 0 Z " fill="#156D9A" transform="translate(448.26953125,263.90234375)"/>
<path d="M0 0 C2.1875 0.125 2.1875 0.125 5 1 C6.7143618 2.95927063 8.38405168 4.95880212 10 7 C10.99 7.33 11.98 7.66 13 8 C14.03291676 9.98320018 15.0337499 11.98347806 16 14 C16.66 14.33 17.32 14.66 18 15 C18 15.99 18 16.98 18 18 C18.99 18.33 19.98 18.66 21 19 C21.9375 21.0625 21.9375 21.0625 23 24 C24.07488922 26.05753048 25.17334232 28.09928606 26.29296875 30.1328125 C27 32 27 32 26 35 C25.5153125 34.03320312 25.030625 33.06640625 24.53125 32.0703125 C18.57233383 20.40189521 11.93890109 11.31210048 1.90625 2.71484375 C1.2771875 2.14894531 0.648125 1.58304687 0 1 C0 0.67 0 0.34 0 0 Z " fill="#20709D" transform="translate(527,285)"/>
<path d="M0 0 C1 2 1 2 0.44140625 4.1640625 C0.15136719 4.97617188 -0.13867188 5.78828125 -0.4375 6.625 C-0.72496094 7.44226563 -1.01242188 8.25953125 -1.30859375 9.1015625 C-1.53675781 9.72804687 -1.76492187 10.35453125 -2 11 C-2.66 11 -3.32 11 -4 11 C-4.66 14.3 -5.32 17.6 -6 21 C-6.99 21 -7.98 21 -9 21 C-9 24.3 -9 27.6 -9 31 C-9.66 31.33 -10.32 31.66 -11 32 C-11.95214806 19.86011226 -6.90255101 9.67520492 0 0 Z " fill="#D6EFF8" transform="translate(138,146)"/>
<path d="M0 0 C0.33 0 0.66 0 1 0 C1.33 6.93 1.66 13.86 2 21 C-0.46278801 18.53721199 -0.99771255 16.29323018 -2 13 C-2.99 13.33 -3.98 13.66 -5 14 C-5.33 14.99 -5.66 15.98 -6 17 C-6.22577402 11.5814234 -5.46670113 7.22512279 -4 2 C-3.01 2.66 -2.02 3.32 -1 4 C-0.67 2.68 -0.34 1.36 0 0 Z " fill="#1C77AF" transform="translate(126,173)"/>
<path d="M0 0 C-2.89408038 0.96469346 -4.53804816 1.08347755 -7.52734375 0.9921875 C-8.40197266 0.97542969 -9.27660156 0.95867187 -10.17773438 0.94140625 C-12.01387902 0.89722443 -13.84985156 0.84517188 -15.68554688 0.78515625 C-16.56146484 0.77097656 -17.43738281 0.75679687 -18.33984375 0.7421875 C-19.13769287 0.7201123 -19.93554199 0.69803711 -20.75756836 0.67529297 C-23.54181292 1.07845522 -24.83441312 2.26337193 -27 4 C-29.359375 4.07421875 -29.359375 4.07421875 -31.75 3.6875 C-32.54921875 3.56761719 -33.3484375 3.44773438 -34.171875 3.32421875 C-34.77515625 3.21722656 -35.3784375 3.11023438 -36 3 C-27.93739171 -5.06260829 -9.94934596 -3.18379071 0 0 Z " fill="#CDEDF8" transform="translate(194,129)"/>
<path d="M0 0 C1.73241669 0.01005239 3.46483904 0.01917424 5.19726562 0.02734375 C9.40248586 0.04917251 13.607429 0.08357701 17.8125 0.125 C17.8125 0.455 17.8125 0.785 17.8125 1.125 C16.57330811 1.154729 16.57330811 1.154729 15.30908203 1.18505859 C12.19638326 1.26391072 9.08402265 1.3506221 5.97167969 1.44238281 C3.9812787 1.49875999 1.9906351 1.54635393 0 1.59375 C-6.54126538 1.79197016 -12.69128686 2.23852618 -19.07373047 3.69287109 C-22.00614562 4.29235998 -24.82778447 4.31941199 -27.8125 4.25 C-28.83601563 4.23195313 -29.85953125 4.21390625 -30.9140625 4.1953125 C-31.66429687 4.17210937 -32.41453125 4.14890625 -33.1875 4.125 C-24.04063652 -1.97290898 -10.55952859 -0.1071828 0 0 Z " fill="#C6E6F0" transform="translate(459.1875,265.875)"/>
<path d="M0 0 C1.65 0 3.3 0 5 0 C5.66 1.65 6.32 3.3 7 5 C3.19588166 8.91939465 -0.81576108 12.49102731 -5 16 C-6.09658936 12.71023192 -5.79953138 11.28696233 -5 8 C-3.68 8 -2.36 8 -1 8 C-0.01 7.67 0.98 7.34 2 7 C2.33 5.35 2.66 3.7 3 2 C2.01 2 1.02 2 0 2 C0 1.34 0 0.68 0 0 Z " fill="#E6F4F7" transform="translate(214,208)"/>
<path d="M0 0 C0.99 0 1.98 0 3 0 C3.66 1.65 4.32 3.3 5 5 C5.78375 4.938125 6.5675 4.87625 7.375 4.8125 C8.674375 4.9053125 8.674375 4.9053125 10 5 C12.29633824 8.44450737 12.54016485 10.93812283 13 15 C12.01 15 11.02 15 10 15 C8.02734375 12.98828125 8.02734375 12.98828125 5.9375 10.3125 C5.24527344 9.44238281 4.55304688 8.57226562 3.83984375 7.67578125 C2.10907704 5.15863646 0.99939097 2.87389631 0 0 Z " fill="#E9F4F4" transform="translate(132,203)"/>
<path d="M0 0 C0.33 0.66 0.66 1.32 1 2 C9.58 2 18.16 2 27 2 C17.39695716 6.80152142 5.1512625 6.23085368 -5 3 C-5.99 2.34 -6.98 1.68 -8 1 C-5.07175348 0.02391783 -3.04386724 -0.08226668 0 0 Z " fill="#BFE4F2" transform="translate(168,228)"/>
<path d="M0 0 C0.91058531 3.07322544 1.08886184 5.80097361 1 9 C-0.36125 8.9690625 -0.36125 8.9690625 -1.75 8.9375 C-4.43791858 8.98919074 -6.49820306 9.07340854 -9 10 C-9.33 10.66 -9.66 11.32 -10 12 C-10.66 11.34 -11.32 10.68 -12 10 C-10.37744772 8.51814875 -8.75188112 7.03959744 -7.125 5.5625 C-6.22007812 4.73878906 -5.31515625 3.91507813 -4.3828125 3.06640625 C-2 1 -2 1 0 0 Z " fill="#E6F3F5" transform="translate(151,135)"/>
<path d="M0 0 C0 0.66 0 1.32 0 2 C-1.32 2 -2.64 2 -4 2 C-4.33 2.99 -4.66 3.98 -5 5 C-7.64 5.33 -10.28 5.66 -13 6 C-13 6.66 -13 7.32 -13 8 C-14.45505358 8.52992692 -15.91418127 9.0486789 -17.375 9.5625 C-18.59316406 9.99755859 -18.59316406 9.99755859 -19.8359375 10.44140625 C-22 11 -22 11 -24 10 C-8.33333333 0 -8.33333333 0 0 0 Z " fill="#D4EEF7" transform="translate(424,271)"/>
<path d="M0 0 C2.44036797 3.94702993 2.90425691 8.24903293 3.625 12.75 C3.7590625 13.5234375 3.893125 14.296875 4.03125 15.09375 C4.85906561 20.12822044 5.12810302 24.89917053 5 30 C1.54831727 26.54831727 1.80990256 22.9828545 1.5625 18.3125 C1.30195066 14.17788091 0.98552319 10.30740222 -0.125 6.3125 C-1 3 -1 3 0 0 Z " fill="#D4F1F8" transform="translate(559,340)"/>
<path d="M0 0 C3.06979393 1.04822232 4.32479662 2.56736839 6.5625 4.875 C7.8928125 5.37 7.8928125 5.37 9.25 5.875 C11.5625 6.875 11.5625 6.875 12.5 8.875 C12.520625 9.535 12.54125 10.195 12.5625 10.875 C11.9025 11.535 11.2425 12.195 10.5625 12.875 C9.99402344 12.33230469 9.42554688 11.78960937 8.83984375 11.23046875 C4.28001853 7.00558896 0.46498565 3.88435682 -5.4375 1.875 C-2.4375 -0.125 -2.4375 -0.125 0 0 Z " fill="#ECF5F7" transform="translate(451.4375,347.125)"/>
<path d="M0 0 C0.66 0 1.32 0 2 0 C2 0.99 2 1.98 2 3 C2.66 3 3.32 3 4 3 C4 3.66 4 4.32 4 5 C1.525 4.505 1.525 4.505 -1 4 C-1 4.66 -1 5.32 -1 6 C-2.72526042 6.9765625 -4.45052083 7.953125 -6.17578125 8.9296875 C-7.81982289 9.89428581 -9.41400588 10.94267059 -11 12 C-11.99 12 -12.98 12 -14 12 C-14 12.66 -14 13.32 -14 14 C-14.66 14 -15.32 14 -16 14 C-16.33 14.66 -16.66 15.32 -17 16 C-17.99 15.01 -18.98 14.02 -20 13 C-19.05898437 12.56429687 -18.11796875 12.12859375 -17.1484375 11.6796875 C-10.40050194 8.4783035 -4.99738509 5.69146636 0 0 Z " fill="#1B74A4" transform="translate(217,216)"/>
<path d="M0 0 C2.56435439 2.56435439 4.01529448 4.46554044 5.75 7.5625 C6.19859375 8.34753906 6.6471875 9.13257813 7.109375 9.94140625 C7.40328125 10.62074219 7.6971875 11.30007813 8 12 C7.67 12.66 7.34 13.32 7 14 C6.34 13.67 5.68 13.34 5 13 C4.67 13.99 4.34 14.98 4 16 C3.34 16 2.68 16 2 16 C1.34 10.72 0.68 5.44 0 0 Z " fill="#E6F2F4" transform="translate(544,304)"/>
<path d="M0 0 C1.32 0 2.64 0 4 0 C4 0.99 4 1.98 4 3 C4.99 3 5.98 3 7 3 C10 7.22222222 10 7.22222222 10 10 C10.639375 10.226875 11.27875 10.45375 11.9375 10.6875 C14 12 14 12 14.6875 14.25 C14.790625 15.1575 14.89375 16.065 15 17 C15.185625 18.093125 15.37125 19.18625 15.5625 20.3125 C15.706875 21.199375 15.85125 22.08625 16 23 C13.65106992 20.05002016 11.94361623 17.05094572 10.25 13.6875 C7.80771615 9.10361548 5.16088529 5.71699145 1.3203125 2.2421875 C0.88460937 1.83226562 0.44890625 1.42234375 0 1 C0 0.67 0 0.34 0 0 Z " fill="#21709E" transform="translate(215,141)"/>
<path d="M0 0 C4.62 0 9.24 0 14 0 C10.45721149 1.77139425 7.20820434 2.96676317 3.4375 4.125 C2.30183594 4.47820312 1.16617187 4.83140625 -0.00390625 5.1953125 C-3 6 -3 6 -6 6 C-5.67 5.01 -5.34 4.02 -5 3 C-5.66 2.34 -6.32 1.68 -7 1 C-4.69 1 -2.38 1 0 1 C0 0.67 0 0.34 0 0 Z " fill="#EAF6F9" transform="translate(403,345)"/>
<path d="M0 0 C4.96916636 0.51405169 9.29026351 1.23384882 14 3 C14 3.66 14 4.32 14 5 C14.9075 5.226875 15.815 5.45375 16.75 5.6875 C20.44888324 7.18127977 21.77905658 8.75400577 24 12 C20.48520298 12 19.81821943 11.34978233 17.0625 9.3125 C11.73806496 5.6135113 6.03192492 3.30662442 0 1 C0 0.67 0 0.34 0 0 Z " fill="#2173A2" transform="translate(192,128)"/>
<path d="M0 0 C0.33 0.66 0.66 1.32 1 2 C-7.07744875 12.92710706 -7.07744875 12.92710706 -13 15 C-10.51918159 7.76427965 -6.15186314 4.14067711 0 0 Z " fill="#206F9E" transform="translate(396,353)"/>
<path d="M0 0 C5.34844008 0.53484401 9.35796103 2.46690767 14 5 C14 5.33 14 5.66 14 6 C10.7 6.33 7.4 6.66 4 7 C3.34 5.68 2.68 4.36 2 3 C1.34 2.67 0.68 2.34 0 2 C0 1.34 0 0.68 0 0 Z " fill="#E7F6F5" transform="translate(194,130)"/>
<path d="M0 0 C2.375 0.625 2.375 0.625 5 2 C6.1875 4.5625 6.1875 4.5625 7 8 C7.1959375 8.74378906 7.391875 9.48757813 7.59375 10.25390625 C8.59289657 14.24391921 9.27664595 16.99803185 8 21 C7.75765625 20.21496094 7.5153125 19.42992187 7.265625 18.62109375 C5.3482382 12.61082359 3.27455456 7.37962535 0 2 C0 1.34 0 0.68 0 0 Z " fill="#D6F4FB" transform="translate(463,360)"/>
<path d="M0 0 C0.33 0 0.66 0 1 0 C1.35832292 5.73316679 0.31117987 9.77334093 -2 15 C-2.7115625 16.670625 -2.7115625 16.670625 -3.4375 18.375 C-5.07688495 21.12916671 -6.01709737 21.97141289 -9 23 C-8.04224488 21.06320632 -7.07668202 19.13939364 -6.03515625 17.24609375 C-3.06709942 11.72717683 -1.47329459 6.07175954 0 0 Z " fill="#2674A0" transform="translate(231,189)"/>
<path d="M0 0 C0.33 0.99 0.66 1.98 1 3 C2.49985609 4.66710346 2.49985609 4.66710346 4 6 C2.20759337 5.88610125 0.41605165 5.75852313 -1.375 5.625 C-2.87160156 5.52058594 -2.87160156 5.52058594 -4.3984375 5.4140625 C-7 5 -7 5 -9 3 C-5.92807025 0.26939578 -4.09590633 -0.34132553 0 0 Z " fill="#106FA2" transform="translate(495,264)"/>
<path d="M0 0 C-8.2693248 6.73796836 -17.82942866 6.15030401 -28 6 C-28 5.67 -28 5.34 -28 5 C-25.36 5 -22.72 5 -20 5 C-20 4.34 -20 3.68 -20 3 C-19.00419922 3.05220703 -19.00419922 3.05220703 -17.98828125 3.10546875 C-11.15023638 3.31510224 -6.36993032 -0.54599403 0 0 Z " fill="#F3FBFA" transform="translate(206,225)"/>
<path d="M0 0 C1.13199353 0.9080162 2.25532363 1.82683826 3.375 2.75 C4.00148438 3.26046875 4.62796875 3.7709375 5.2734375 4.296875 C7.08312318 6.08199481 8.00117455 7.67949644 9 10 C7.33333333 10 5.66666667 10 4 10 C3.34 10.66 2.68 11.32 2 12 C1.66430703 10.37548581 1.3315204 8.75037083 1 7.125 C0.814375 6.22007812 0.62875 5.31515625 0.4375 4.3828125 C0 2 0 2 0 0 Z " fill="#E2F2F4" transform="translate(534,292)"/>
<path d="M0 0 C0.66 0.33 1.32 0.66 2 1 C2.9375 4.3125 2.9375 4.3125 3 8 C0.6875 10.4375 0.6875 10.4375 -2 12 C-2.66 12 -3.32 12 -4 12 C-3.67 11.01 -3.34 10.02 -3 9 C-2.01 9 -1.02 9 0 9 C0 8.34 0 7.68 0 7 C-0.66 7 -1.32 7 -2 7 C-2.125 4.625 -2.125 4.625 -2 2 C-1.34 1.34 -0.68 0.68 0 0 Z " fill="#0F72AB" transform="translate(221,212)"/>
<path d="M0 0 C5.7266425 2.9826263 10.26638344 6.62294157 15 11 C13.68 11.33 12.36 11.66 11 12 C10.649375 11.4225 10.29875 10.845 9.9375 10.25 C8.05888323 8.06838052 6.86746392 7.28973492 4.375 6 C1 4 1 4 0.0625 1.75 C0.041875 1.1725 0.02125 0.595 0 0 Z " fill="#DCF3F7" transform="translate(519,280)"/>
<path d="M0 0 C1.09658936 3.28976808 0.79953138 4.71303767 0 8 C-2.31 8.33 -4.62 8.66 -7 9 C-2.85714286 2.57142857 -2.85714286 2.57142857 0 0 Z " fill="#E1F2F7" transform="translate(383,295)"/>
<path d="M0 0 C3 1 3 1 5 4 C4.625 7.1875 4.625 7.1875 4 10 C3.67 9.34 3.34 8.68 3 8 C2.01 8 1.02 8 0 8 C0 5.36 0 2.72 0 0 Z " fill="#FAFAEE" transform="translate(132,195)"/>
<path d="M0 0 C-4 4 -8 8 -12 12 C-10.66355783 8.40188648 -9.0247216 5.25716084 -7 2 C-6.67 1.34 -6.34 0.68 -6 0 C-2.49056604 -1.24528302 -2.49056604 -1.24528302 0 0 Z " fill="#196895" transform="translate(146,139)"/>
<path d="M0 0 C0.99 0.33 1.98 0.66 3 1 C-1.625 5.875 -1.625 5.875 -5 7 C-5.66 6.34 -6.32 5.68 -7 5 C-6.34 5 -5.68 5 -5 5 C-5.33 4.01 -5.66 3.02 -6 2 C-3 1 -3 1 0 2 C0 1.34 0 0.68 0 0 Z " fill="#DEF1F6" transform="translate(394,351)"/>
<path d="M0 0 C3.57011026 3.732388 4.10913442 8.0949989 5 13 C4.01 12.67 3.02 12.34 2 12 C1.87625 11.030625 1.7525 10.06125 1.625 9.0625 C1.41875 8.051875 1.2125 7.04125 1 6 C0.34 5.67 -0.32 5.34 -1 5 C-0.67 3.35 -0.34 1.7 0 0 Z " fill="#D1EBF3" transform="translate(226,156)"/>
<path d="M0 0 C2.64 0 5.28 0 8 0 C5.20375042 2.18697502 2.36692128 3.99152813 -0.75 5.6875 C-1.94882813 6.34298828 -1.94882813 6.34298828 -3.171875 7.01171875 C-3.77515625 7.33785156 -4.3784375 7.66398438 -5 8 C-4.6875 6.125 -4.6875 6.125 -4 4 C-3.01 3.34 -2.02 2.68 -1 2 C-0.67 1.34 -0.34 0.68 0 0 Z " fill="#1C6F9C" transform="translate(152,130)"/>
<path d="M0 0 C1 3 1 3 0 6 C-0.99 6.495 -0.99 6.495 -2 7 C-2.33 7.99 -2.66 8.98 -3 10 C-3.99 10 -4.98 10 -6 10 C-4.52307692 2.36923077 -4.52307692 2.36923077 -1.875 0.5 C-1.25625 0.335 -0.6375 0.17 0 0 Z " fill="#0376BB" transform="translate(377,294)"/>
<path d="M0 0 C0.66 0 1.32 0 2 0 C1.34 6.93 0.68 13.86 0 21 C-0.33 21 -0.66 21 -1 21 C-1.02895976 17.87501937 -1.04678483 14.7500731 -1.0625 11.625 C-1.07087891 10.73554688 -1.07925781 9.84609375 -1.08789062 8.9296875 C-1.09111328 8.07890625 -1.09433594 7.228125 -1.09765625 6.3515625 C-1.10289307 5.56604004 -1.10812988 4.78051758 -1.11352539 3.97119141 C-1 2 -1 2 0 0 Z " fill="#CAEAF7" transform="translate(373,389)"/>
<path d="M0 0 C1.8272911 2.74093665 2.93698178 5.13825324 4.125 8.1875 C4.47820312 9.08855469 4.83140625 9.98960937 5.1953125 10.91796875 C5.46085938 11.60503906 5.72640625 12.29210937 6 13 C4.68 13 3.36 13 2 13 C0.54815522 8.46298506 -0.23509196 4.81938524 0 0 Z " fill="#297AA4" transform="translate(128,194)"/>
<path d="M0 0 C0.33 0 0.66 0 1 0 C1.04898437 0.77085937 1.09796875 1.54171875 1.1484375 2.3359375 C1.22320312 3.33882813 1.29796875 4.34171875 1.375 5.375 C1.44460938 6.37273437 1.51421875 7.37046875 1.5859375 8.3984375 C1.76363964 11.15508879 1.76363964 11.15508879 4 13 C2.68 14.32 1.36 15.64 0 17 C0 11.39 0 5.78 0 0 Z " fill="#1E6890" transform="translate(369,296)"/>
<path d="M0 0 C4.36109605 0.50710419 7.45075299 1.36341651 11 4 C11.33 4.99 11.66 5.98 12 7 C7.39104317 5.68315519 3.85859765 3.84801255 0 1 C0 0.67 0 0.34 0 0 Z " fill="#CEEDF6" transform="translate(148,222)"/>
<path d="M0 0 C2 3 2 3 2 7 C2.99 7.66 3.98 8.32 5 9 C4.01 10.32 3.02 11.64 2 13 C0.39057631 9.35197297 -0.55897598 5.96921614 -1 2 C-0.67 1.34 -0.34 0.68 0 0 Z " fill="#FBF7ED" transform="translate(469,360)"/>
<path d="M0 0 C0 0.99 0 1.98 0 3 C-3 5 -3 5 -6 5 C-6 5.66 -6 6.32 -6 7 C-6.66 7 -7.32 7 -8 7 C-8.33 7.66 -8.66 8.32 -9 9 C-9.99 8.01 -10.98 7.02 -12 6 C-8.04 4.02 -4.08 2.04 0 0 Z " fill="#2977A1" transform="translate(209,223)"/>
<path d="M0 0 C-3.83325617 2.70582788 -6.32538149 3.32613618 -11 3 C-11.33 2.01 -11.66 1.02 -12 0 C-10.37585622 -0.19477739 -8.75063577 -0.38059458 -7.125 -0.5625 C-6.22007812 -0.66691406 -5.31515625 -0.77132812 -4.3828125 -0.87890625 C-2 -1 -2 -1 0 0 Z " fill="#F6FAF6" transform="translate(201,226)"/>
<path d="M0 0 C1 3 1 3 0.3125 5.625 C-1 8 -1 8 -3.125 8.8125 C-3.74375 8.874375 -4.3625 8.93625 -5 9 C-4.67 6.69 -4.34 4.38 -4 2 C-3.67 2.66 -3.34 3.32 -3 4 C-2.34 4 -1.68 4 -1 4 C-0.67 2.68 -0.34 1.36 0 0 Z " fill="#1C7FBB" transform="translate(380,380)"/>
<path d="M0 0 C0.33 0 0.66 0 1 0 C1.3669579 6.48292295 1.3669579 6.48292295 -0.375 8.9375 C-2 10 -2 10 -4 10 C-2.8905928 6.51329166 -1.73662334 3.22515763 0 0 Z " fill="#1F729F" transform="translate(382,368)"/>
<path d="M0 0 C0.33 0 0.66 0 1 0 C1.39141851 3.42491198 1.13357065 4.79010327 -0.75 7.75 C-2.96883223 9.96883223 -3.94602429 10.67278832 -7 11 C-7 10.34 -7 9.68 -7 9 C-5.66666667 7.66666667 -4.33333333 6.33333333 -3 5 C-1.98343919 3.34338239 -0.97934924 1.67888441 0 0 Z " fill="#D4F0F7" transform="translate(375,304)"/>
<path d="M0 0 C1.68375165 0.62225605 3.35767228 1.27544365 5 2 C5 2.33 5 2.66 5 3 C3.20759337 2.88610125 1.41605165 2.75852313 -0.375 2.625 C-1.87160156 2.52058594 -1.87160156 2.52058594 -3.3984375 2.4140625 C-6 2 -6 2 -8 0 C-5.08249759 -1.45875121 -3.14485878 -0.67830287 0 0 Z " fill="#D8F5F9" transform="translate(508,274)"/>
<path d="M0 0 C1.32 0 2.64 0 4 0 C3.34 3.3 2.68 6.6 2 10 C-0.39119721 7.60880279 -0.59712795 6.30355083 -1 3 C-0.67 2.01 -0.34 1.02 0 0 Z " fill="#E4F9FC" transform="translate(130,192)"/>
<path d="M0 0 C0.99 0.33 1.98 0.66 3 1 C0.53846154 7.64615385 0.53846154 7.64615385 -2.1875 9.4375 C-3.0846875 9.7159375 -3.0846875 9.7159375 -4 10 C-3.34 8.02 -2.68 6.04 -2 4 C-1.34 4 -0.68 4 0 4 C0 2.68 0 1.36 0 0 Z " fill="#1173A6" transform="translate(133,147)"/>
<path d="M0 0 C2.4375 0.875 2.4375 0.875 3.75 2.9375 C4.0903125 3.8965625 4.0903125 3.8965625 4.4375 4.875 C0.57054322 4.875 -2.0713452 3.45590029 -5.5625 1.875 C-2.5625 -0.125 -2.5625 -0.125 0 0 Z " fill="#CEEDF6" transform="translate(451.5625,347.125)"/>
<path d="M0 0 C-1.05339554 3.27723056 -2.63763259 4.60460094 -5.5 6.3125 C-6.655 6.869375 -7.81 7.42625 -9 8 C-9.66 7.67 -10.32 7.34 -11 7 C-9.54634731 5.82750647 -8.08692581 4.66216184 -6.625 3.5 C-5.40683594 2.52546875 -5.40683594 2.52546875 -4.1640625 1.53125 C-2 0 -2 0 0 0 Z " fill="#C7ECF6" transform="translate(400,282)"/>
<path d="M0 0 C0 0.66 0 1.32 0 2 C-1.32 2 -2.64 2 -4 2 C-4.33 2.99 -4.66 3.98 -5 5 C-6.32 5 -7.64 5 -9 5 C-8 2 -8 2 -6.1875 0.8125 C-4 0 -4 0 0 0 Z " fill="#DEF6F9" transform="translate(424,271)"/>
<path d="M0 0 C-4.10457614 2.98514628 -6.97745369 3.2954439 -12 3 C-8.61613364 -0.38386636 -4.56431325 -1.75550509 0 0 Z " fill="#BEE3EF" transform="translate(170,129)"/>
<path d="M0 0 C3.79588866 0.54226981 5.47211993 2.20127563 8 5 C7.67 5.99 7.34 6.98 7 8 C6.67 7.01 6.34 6.02 6 5 C4.08333333 3.83333333 4.08333333 3.83333333 2 3 C1.34 2.67 0.68 2.34 0 2 C0 1.34 0 0.68 0 0 Z " fill="#246FA0" transform="translate(453,353)"/>
<path d="M0 0 C2.39073445 3.82517513 2.55966552 7.59665524 3 12 C0.58279247 10.10827237 0.01036031 9.04144125 -0.75 6 C-1 3 -1 3 0 0 Z " fill="#C6E7F3" transform="translate(559,340)"/>
<path d="M0 0 C0.66 0.33 1.32 0.66 2 1 C2 3.64 2 6.28 2 9 C1.01 9.495 1.01 9.495 0 10 C-1.125 2.25 -1.125 2.25 0 0 Z " fill="#F9FBEF" transform="translate(228,168)"/>
<path d="M0 0 C2.31 1.98 4.62 3.96 7 6 C4 7 4 7 1 6 C0.67 4.02 0.34 2.04 0 0 Z " fill="#E0F3F9" transform="translate(210,137)"/>
<path d="M0 0 C8.57142857 0.85714286 8.57142857 0.85714286 12 3 C12 3.66 12 4.32 12 5 C10.37276701 4.54965877 8.74826336 4.08944646 7.125 3.625 C5.76761719 3.24214844 5.76761719 3.24214844 4.3828125 2.8515625 C2 2 2 2 0 0 Z " fill="#30789F" transform="translate(192,128)"/>
<path d="M0 0 C1.65 0 3.3 0 5 0 C5.66 1.65 6.32 3.3 7 5 C5.68 4.67 4.36 4.34 3 4 C3 3.34 3 2.68 3 2 C2.01 2 1.02 2 0 2 C0 1.34 0 0.68 0 0 Z " fill="#F6F6ED" transform="translate(214,208)"/>
<path d="M0 0 C1.65 1.65 3.3 3.3 5 5 C4.01 5.495 4.01 5.495 3 6 C2.67 5.67 2.34 5.34 2 5 C1.01 5 0.02 5 -1 5 C-1.33 3.68 -1.66 2.36 -2 1 C-1.34 0.67 -0.68 0.34 0 0 Z " fill="#D8EFF5" transform="translate(219,146)"/>
<path d="M0 0 C2.83328987 2.83328987 3.7191375 4.35446828 5 8 C4.01 8.33 3.02 8.66 2 9 C1.34 6.03 0.68 3.06 0 0 Z " fill="#D5ECF5" transform="translate(544,304)"/>
<path d="M0 0 C-3.96 1.98 -3.96 1.98 -8 4 C-7.67 2.68 -7.34 1.36 -7 0 C-4 -1 -4 -1 0 0 Z " fill="#0B72AC" transform="translate(397,282)"/>
<path d="M0 0 C0 0.99 0 1.98 0 3 C-0.66 3 -1.32 3 -2 3 C-2.66 4.32 -3.32 5.64 -4 7 C-4.99 6.67 -5.98 6.34 -7 6 C-2.25 1.125 -2.25 1.125 0 0 Z " fill="#CEEEF6" transform="translate(151,135)"/>
<path d="M0 0 C3.9492568 0.55105909 7.34920174 1.38935371 11 3 C11 3.33 11 3.66 11 4 C7.06225823 4.36630156 5.43460229 4.30233203 2.125 2 C1.42375 1.34 0.7225 0.68 0 0 Z " fill="#206F99" transform="translate(442,348)"/>
<path d="M0 0 C-0.33 0.66 -0.66 1.32 -1 2 C-4.3 1.67 -7.6 1.34 -11 1 C-11 0.67 -11 0.34 -11 0 C-7.01803543 -1.05404945 -4.01804691 -0.84098656 0 0 Z " fill="#1976AC" transform="translate(443,347)"/>
<path d="M0 0 C2.56616632 3.84924948 2.55097676 6.4349304 3 11 C2.01 11.495 2.01 11.495 1 12 C0.45533613 7.915021 0 4.1274515 0 0 Z " fill="#CBEBF5" transform="translate(556,329)"/>
<path d="M0 0 C2.4375 0.75 2.4375 0.75 4.4375 2.75 C0.62260326 4.21726798 -1.85261622 3.18336419 -5.5625 1.75 C-2.5625 -0.25 -2.5625 -0.25 0 0 Z " fill="#2A7AA4" transform="translate(501.5625,269.25)"/>
<path d="M0 0 C2.31 0 4.62 0 7 0 C7 0.99 7 1.98 7 3 C4.36 2.67 1.72 2.34 -1 2 C-0.67 1.34 -0.34 0.68 0 0 Z " fill="#017ABE" transform="translate(169,235)"/>
<path d="M0 0 C-0.33 0.99 -0.66 1.98 -1 3 C-2.32 3 -3.64 3 -5 3 C-5.33 3.99 -5.66 4.98 -6 6 C-6.33 5.01 -6.66 4.02 -7 3 C-3.375 0 -3.375 0 0 0 Z " fill="#E6F4F5" transform="translate(388,359)"/>
<path d="M0 0 C1.32 0.33 2.64 0.66 4 1 C4 1.99 4 2.98 4 4 C2.02 4 0.04 4 -2 4 C-1.34 2.68 -0.68 1.36 0 0 Z " fill="#EFFCF4" transform="translate(400,282)"/>
<path d="M0 0 C-3.1254959 2.64465038 -6.08788267 3.84414715 -10 5 C-10 4.34 -10 3.68 -10 3 C-6.58168085 0.4606772 -4.24223102 -0.3636198 0 0 Z " fill="#D4F4FD" transform="translate(206,225)"/>
<path d="M0 0 C0.99 0 1.98 0 3 0 C4.25664978 2.90600261 5 4.79604584 5 8 C2.27573689 5.64722731 1.1858237 3.37503669 0 0 Z " fill="#D4F0F9" transform="translate(132,203)"/>
<path d="M0 0 C2.64 0 5.28 0 8 0 C7.01 0.33 6.02 0.66 5 1 C5 1.99 5 2.98 5 4 C1.125 2.25 1.125 2.25 0 0 Z " fill="#EEF7F6" transform="translate(156,132)"/>
</svg>
