<?xml version="1.0" standalone="no"?>
<!DOCTYPE svg PUBLIC "-//W3C//DTD SVG 20010904//EN"
 "http://www.w3.org/TR/2001/REC-SVG-20010904/DTD/svg10.dtd">
<svg version="1.0" xmlns="http://www.w3.org/2000/svg"
 width="225.000000pt" height="225.000000pt" viewBox="0 0 225.000000 225.000000"
 preserveAspectRatio="xMidYMid meet">

<g transform="translate(0.000000,225.000000) scale(0.100000,-0.100000)"
fill="#000000" stroke="none">
<path d="M985 2101 c-397 -65 -707 -342 -812 -726 -24 -88 -27 -118 -27 -250
0 -132 3 -162 27 -250 95 -346 356 -607 702 -702 88 -24 118 -27 250 -27 132
0 162 3 250 27 346 95 607 356 702 702 24 88 27 118 27 250 0 132 -3 162 -27
250 -94 344 -357 608 -697 700 -104 28 -301 41 -395 26z m353 -405 c86 -18
114 -21 120 -11 11 19 48 35 79 35 38 0 72 -25 89 -66 12 -29 12 -39 0 -68
-35 -83 -139 -90 -182 -11 -16 30 -25 34 -93 49 -137 29 -120 42 -156 -126
l-31 -146 60 -7 c83 -10 179 -40 253 -80 l61 -34 38 20 c21 10 49 19 61 19 64
0 137 -61 149 -125 8 -45 -11 -99 -45 -128 -23 -19 -29 -34 -34 -85 -23 -222
-266 -383 -577 -383 -191 0 -347 53 -458 156 -76 70 -113 138 -120 222 -4 54
-9 67 -29 80 -56 37 -72 134 -34 197 38 61 127 84 192 50 30 -15 33 -14 97 19
81 42 161 67 249 75 l67 7 36 170 c19 94 39 176 43 183 11 17 34 15 165 -12z"/>
<path d="M829 1091 c-37 -38 -39 -88 -5 -128 32 -37 103 -40 138 -5 35 35 32
106 -5 138 -40 34 -90 32 -128 -5z"/>
<path d="M1308 1104 c-32 -17 -48 -43 -48 -78 0 -85 100 -131 158 -72 40 39
37 98 -6 137 -36 32 -63 36 -104 13z"/>
<path d="M880 776 c0 -8 12 -23 28 -34 74 -51 203 -74 302 -53 79 17 160 58
160 82 0 25 -13 24 -79 -8 -47 -24 -72 -29 -154 -31 -91 -4 -101 -2 -163 27
-73 34 -94 38 -94 17z"/>
</g>
</svg>
